<svg width="25" height="22" viewBox="0 0 25 22" fill="none" xmlns="http://www.w3.org/2000/svg">
<g id="done_all_24px">
<path id="icon/action/done_all_24px" fill-rule="evenodd" clip-rule="evenodd" d="M22.4011 5.49485L12.1094 14.5515L8.48442 11.3707C8.28981 11.199 8.02559 11.1026 7.75005 11.1026C7.47451 11.1026 7.21029 11.199 7.01568 11.3707C6.60943 11.7282 6.60943 12.3057 7.01568 12.6632L11.3698 16.4948C11.7761 16.8523 12.4323 16.8523 12.8386 16.4948L23.8698 6.79652C24.2761 6.43902 24.2761 5.86152 23.8698 5.50402H23.8594C23.4636 5.13735 22.8073 5.13735 22.4011 5.49485ZM17.9844 5.50402C17.7898 5.33237 17.5256 5.2359 17.25 5.2359C16.9745 5.2359 16.7103 5.33237 16.5157 5.50402L10.6407 10.674L12.1094 11.9665L17.9844 6.78735C18.3802 6.43902 18.3802 5.85235 17.9844 5.50402ZM5.48442 16.504L1.13025 12.6723C0.723999 12.3148 0.723999 11.7282 1.13025 11.3707C1.32487 11.199 1.58908 11.1026 1.86462 11.1026C2.14016 11.1026 2.40438 11.199 2.599 11.3707L7.68233 15.8623L6.95317 16.504C6.54692 16.8615 5.89067 16.8615 5.48442 16.504Z" fill="#4BD8A5"/>
</g>
</svg>
