<svg width="24" height="20" viewBox="0 0 24 20" fill="none" xmlns="http://www.w3.org/2000/svg">
<g id="storage_24px">
<path id="icon/device/storage_24px" fill-rule="evenodd" clip-rule="evenodd" d="M2 5.17647C2 6.06618 2.9 6.79412 4 6.79412H20C21.1 6.79412 22 6.06618 22 5.17647C22 4.28676 21.1 3.55882 20 3.55882H4C2.9 3.55882 2 4.28676 2 5.17647ZM20 16.5H4C2.9 16.5 2 15.7721 2 14.8824C2 13.9926 2.9 13.2647 4 13.2647H20C21.1 13.2647 22 13.9926 22 14.8824C22 15.7721 21.1 16.5 20 16.5ZM6 14.0735H4V15.6912H6V14.0735ZM4 5.98529H6V4.36765H4V5.98529ZM4 11.6471H20C21.1 11.6471 22 10.9191 22 10.0294C22 9.1397 21.1 8.41176 20 8.41176H4C2.9 8.41176 2 9.1397 2 10.0294C2 10.9191 2.9 11.6471 4 11.6471ZM6 9.22059H4V10.8382H6V9.22059Z" fill="#F86D70"/>
</g>
</svg>
