<svg width="24" height="20" viewBox="0 0 24 20" fill="none" xmlns="http://www.w3.org/2000/svg">
<path fill-rule="evenodd" clip-rule="evenodd" d="M2 5.17648C2 6.06619 2.9 6.79413 4 6.79413H20C21.1 6.79413 22 6.06619 22 5.17648C22 4.28678 21.1 3.55884 20 3.55884H4C2.9 3.55884 2 4.28678 2 5.17648ZM20 16.5H4C2.9 16.5 2 15.7721 2 14.8824C2 13.9927 2.9 13.2647 4 13.2647H20C21.1 13.2647 22 13.9927 22 14.8824C22 15.7721 21.1 16.5 20 16.5ZM6 14.0735H4V15.6912H6V14.0735ZM4 5.98531H6V4.36766H4V5.98531ZM4 11.6471H20C21.1 11.6471 22 10.9191 22 10.0294C22 9.13972 21.1 8.41178 20 8.41178H4C2.9 8.41178 2 9.13972 2 10.0294C2 10.9191 2.9 11.6471 4 11.6471ZM6 9.2206H4V10.8382H6V9.2206Z" fill="white"/>
</svg>
