<svg width="24" height="20" viewBox="0 0 24 20" fill="none" xmlns="http://www.w3.org/2000/svg">
<g id="event_note_24px">
<path id="icon/notification/event_note_24px" fill-rule="evenodd" clip-rule="evenodd" d="M18 3.55882H19C20.1 3.55882 21 4.28677 21 5.17647V16.5C21 17.3897 20.1 18.1176 19 18.1176H5C3.89 18.1176 3 17.3897 3 16.5V5.17647C3 4.28677 3.89 3.55882 5 3.55882H6V2.75C6 2.30515 6.45 1.94118 7 1.94118C7.55 1.94118 8 2.30515 8 2.75V3.55882H16V2.75C16 2.30515 16.45 1.94118 17 1.94118C17.55 1.94118 18 2.30515 18 2.75V3.55882ZM8 9.22059H16C16.55 9.22059 17 9.58456 17 10.0294C17 10.4743 16.55 10.8382 16 10.8382H8C7.45 10.8382 7 10.4743 7 10.0294C7 9.58456 7.45 9.22059 8 9.22059ZM18 16.5H6C5.45 16.5 5 16.136 5 15.6912V7.60294H19V15.6912C19 16.136 18.55 16.5 18 16.5ZM8 12.4559H13C13.55 12.4559 14 12.8199 14 13.2647C14 13.7096 13.55 14.0735 13 14.0735H8C7.45 14.0735 7 13.7096 7 13.2647C7 12.8199 7.45 12.4559 8 12.4559Z" fill="white"/>
</g>
</svg>
