<svg width="24" height="20" viewBox="0 0 24 20" fill="none" xmlns="http://www.w3.org/2000/svg">
<path fill-rule="evenodd" clip-rule="evenodd" d="M18 3.55884H19C20.1 3.55884 21 4.28678 21 5.17649V16.5C21 17.3897 20.1 18.1177 19 18.1177H5C3.89 18.1177 3 17.3897 3 16.5V5.17649C3 4.28678 3.89 3.55884 5 3.55884H6V2.75002C6 2.30516 6.45 1.94119 7 1.94119C7.55 1.94119 8 2.30516 8 2.75002V3.55884H16V2.75002C16 2.30516 16.45 1.94119 17 1.94119C17.55 1.94119 18 2.30516 18 2.75002V3.55884ZM8 9.2206H16C16.55 9.2206 17 9.58457 17 10.0294C17 10.4743 16.55 10.8383 16 10.8383H8C7.45 10.8383 7 10.4743 7 10.0294C7 9.58457 7.45 9.2206 8 9.2206ZM18 16.5H6C5.45 16.5 5 16.136 5 15.6912V7.60296H19V15.6912C19 16.136 18.55 16.5 18 16.5ZM8 12.4559H13C13.55 12.4559 14 12.8199 14 13.2647C14 13.7096 13.55 14.0735 13 14.0735H8C7.45 14.0735 7 13.7096 7 13.2647C7 12.8199 7.45 12.4559 8 12.4559Z" fill="#F86D70"/>
</svg>
