<svg width="24" height="20" viewBox="0 0 24 20" fill="none" xmlns="http://www.w3.org/2000/svg">
<path fill-rule="evenodd" clip-rule="evenodd" d="M18 6.79413C18 4.11693 15.31 1.94119 12 1.94119C8.69 1.94119 6 4.11693 6 6.79413C6 9.61693 9.62 13.4184 11.23 14.9794C11.63 15.3677 12.36 15.3677 12.76 14.9794C14.38 13.4184 18 9.61693 18 6.79413ZM10 6.79413C10 5.90443 10.9 5.17649 12 5.17649C13.1 5.17649 14 5.90443 14 6.79413C14 7.68384 13.11 8.41178 12 8.41178C10.9 8.41178 10 7.68384 10 6.79413ZM6 18.1177C5.45 18.1177 5 17.7537 5 17.3088C5 16.864 5.45 16.5 6 16.5H18C18.55 16.5 19 16.864 19 17.3088C19 17.7537 18.55 18.1177 18 18.1177H6Z" fill="#F86D70"/>
</svg>
