<svg width="24" height="20" viewBox="0 0 24 20" fill="none" xmlns="http://www.w3.org/2000/svg">
<g id="pin_drop_24px">
<path id="icon/maps/pin_drop_24px" fill-rule="evenodd" clip-rule="evenodd" d="M18 6.79412C18 4.11691 15.31 1.94118 12 1.94118C8.69 1.94118 6 4.11691 6 6.79412C6 9.61691 9.62 13.4184 11.23 14.9794C11.63 15.3676 12.36 15.3676 12.76 14.9794C14.38 13.4184 18 9.61691 18 6.79412ZM10 6.79412C10 5.90441 10.9 5.17647 12 5.17647C13.1 5.17647 14 5.90441 14 6.79412C14 7.68382 13.11 8.41177 12 8.41177C10.9 8.41177 10 7.68382 10 6.79412ZM6 18.1176C5.45 18.1176 5 17.7537 5 17.3088C5 16.864 5.45 16.5 6 16.5H18C18.55 16.5 19 16.864 19 17.3088C19 17.7537 18.55 18.1176 18 18.1176H6Z" fill="white"/>
</g>
</svg>
