<svg width="38" height="36" viewBox="0 0 38 36" fill="none" xmlns="http://www.w3.org/2000/svg">
<g id="check_circle_24px">
<path id="icon/action/check_circle_24px" fill-rule="evenodd" clip-rule="evenodd" d="M3.16675 18C3.16675 9.72 10.2601 3 19.0001 3C27.7401 3 34.8334 9.72 34.8334 18C34.8334 26.28 27.7401 33 19.0001 33C10.2601 33 3.16675 26.28 3.16675 18ZM9.02507 19.05L14.7092 24.435C15.3267 25.02 16.3401 25.02 16.9417 24.435L28.9592 13.05C29.5767 12.465 29.5767 11.52 28.9592 10.935C28.3417 10.35 27.3442 10.35 26.7267 10.935L15.8334 21.255L11.2576 16.935C10.6401 16.35 9.64257 16.35 9.02507 16.935C8.72859 17.2152 8.56197 17.5957 8.56197 17.9925C8.56197 18.3893 8.72859 18.7698 9.02507 19.05Z" fill="#4BD8A5"/>
</g>
</svg>
