<svg width="38" height="36" viewBox="0 0 38 36" fill="none" xmlns="http://www.w3.org/2000/svg">
<path d="M19.0001 3C10.2601 3 3.16675 9.72 3.16675 18C3.16675 26.28 10.2601 33 19.0001 33C27.7401 33 34.8334 26.28 34.8334 18C34.8334 9.72 27.7401 3 19.0001 3Z" fill="#E1CC82"/>
<path d="M17.3965 14.56L17.2765 11.6H20.7165L20.5965 14.56L20.1165 20.12H17.8765L17.3965 14.56ZM18.9965 25.24C18.4232 25.24 17.9432 25.04 17.5565 24.64C17.1832 24.24 16.9965 23.7467 16.9965 23.16C16.9965 22.5733 17.1832 22.08 17.5565 21.68C17.9432 21.28 18.4232 21.08 18.9965 21.08C19.5698 21.08 20.0432 21.28 20.4165 21.68C20.8032 22.08 20.9965 22.5733 20.9965 23.16C20.9965 23.7467 20.8032 24.24 20.4165 24.64C20.0432 25.04 19.5698 25.24 18.9965 25.24Z" fill="white"/>
</svg>
