<svg width="25" height="22" viewBox="0 0 18 15" fill="none" xmlns="http://www.w3.org/2000/svg">
<path fill-rule="evenodd" clip-rule="evenodd" d="M15.9025 14.9408C17.3142 14.9408 18.1942 13.4795 17.4884 12.3158L10.5859 0.932032C9.88003 -0.231718 8.12003 -0.231718 7.4142 0.932032L0.511696 12.3158C-0.194137 13.4795 0.685863 14.9408 2.09753 14.9408H15.9025ZM9.00003 8.81578C8.49586 8.81578 8.08336 8.42203 8.08336 7.94078V6.19078C8.08336 5.70953 8.49586 5.31578 9.00003 5.31578C9.5042 5.31578 9.9167 5.70953 9.9167 6.19078V7.94078C9.9167 8.42203 9.5042 8.81578 9.00003 8.81578ZM8.08336 10.5658V12.3158H9.9167V10.5658H8.08336Z" fill="#F86D70"/>
</svg>
