<svg width="22" height="21" viewBox="0 0 22 21" fill="none" xmlns="http://www.w3.org/2000/svg">
<g id="warning_24px">
<path id="icon/alert/warning_24px" fill-rule="evenodd" clip-rule="evenodd" d="M17.9025 17.9408C19.3142 17.9408 20.1942 16.4795 19.4884 15.3158L12.5859 3.93203C11.88 2.76828 10.12 2.76828 9.4142 3.93203L2.5117 15.3158C1.80586 16.4795 2.68586 17.9408 4.09753 17.9408H17.9025ZM11 11.8158C10.4959 11.8158 10.0834 11.422 10.0834 10.9408V9.19078C10.0834 8.70953 10.4959 8.31578 11 8.31578C11.5042 8.31578 11.9167 8.70953 11.9167 9.19078V10.9408C11.9167 11.422 11.5042 11.8158 11 11.8158ZM10.0834 13.5658V15.3158H11.9167V13.5658H10.0834Z" fill="#F86D70"/>
</g>
</svg>
