<svg width="210" height="120" viewBox="0 0 210 120" fill="none" xmlns="http://www.w3.org/2000/svg">
<g clip-path="url(#clip0)">
<path opacity="0.1" d="M181.981 120C188.646 120 194.05 118.836 194.05 117.401C194.05 115.965 188.646 114.802 181.981 114.802C175.315 114.802 169.911 115.965 169.911 117.401C169.911 118.836 175.315 120 181.981 120Z" fill="#6C63FF"/>
<path opacity="0.1" d="M201.886 106.305C197.294 109.395 190.759 110.674 184.44 111.482L183.376 111.614C176.776 112.412 170.102 112.837 163.406 113.096C159.823 113.237 156.24 113.336 152.656 113.425L149.849 113.492C146.203 113.58 142.55 113.666 138.89 113.751C135.307 113.833 131.724 113.911 128.141 113.983C123.552 114.074 118.963 114.149 114.375 114.21C110.792 114.256 107.208 114.287 103.625 114.305C99.0354 114.326 94.4466 114.319 89.859 114.283C86.2735 114.254 82.6904 114.203 79.1099 114.13C74.5186 114.034 69.9298 113.894 65.3435 113.709C62.2307 113.586 59.1197 113.438 56.0106 113.264L54.5944 113.183C41.2485 112.403 27.6631 111.003 15.9843 106.579L15.6694 106.458C15.5129 106.398 15.3563 106.339 15.1998 106.276C13.0555 105.444 11.0015 104.467 9.05963 103.356C5.60671 101.358 2.75537 98.9192 1.2486 96.0263C-1.11243 91.4889 0.135976 86.3885 2.83268 81.952C5.52939 77.5156 9.57822 73.5105 13.0802 69.3326C14.1061 68.1088 15.0791 66.839 15.9843 65.5372C21.6417 57.3726 24.4478 47.9244 18.517 40.0566C17.7341 39.0535 16.8888 38.0833 15.9843 37.15C14.5379 35.6202 13.067 34.0903 12.0732 32.3968C9.75549 28.456 10.2533 24.0242 11.0982 19.8141C12.2297 14.2166 14.3041 8.18756 20.7875 4.69041C27.5142 1.05864 37.062 1.24221 45.4105 2.54867C58.3905 4.56649 70.3711 8.79031 82.4648 12.5995C94.5585 16.4088 107.227 19.8922 120.524 20.267C123.381 20.3463 126.24 20.2619 129.082 20.0145C132.87 19.6987 136.607 19.0603 140.231 18.1099C145.464 16.7117 150.226 14.6082 153.756 11.6847C161.327 5.43543 175.556 4.96272 185.815 8.73676C195.604 12.3379 201.935 19.9595 201.467 27.5718C200.935 36.0454 193.113 43.0122 185.945 50.158C185.075 51.0238 184.217 51.8928 183.382 52.7678C182.916 53.2563 182.458 53.7459 182.009 54.2364C181.223 55.1023 180.463 55.9728 179.746 56.8539C176.084 61.3715 173.495 66.7977 176.016 71.6748C177.43 74.4055 180.129 76.4891 183.382 78.308C190.671 82.3819 200.731 85.1233 205.257 90.8265C209.157 95.7418 207.713 102.377 201.886 106.305Z" fill="#6C63FF"/>
<g opacity="0.1">
<path opacity="0.1" d="M104.757 84.0402C104.764 84.184 104.778 84.3248 104.796 84.4625C106.264 83.9882 107.704 83.4783 109.117 82.9326C109.871 82.8515 110.572 82.5733 111.114 82.1402C111.527 81.9719 111.938 81.796 112.345 81.6201C112.253 81.4618 112.149 81.3085 112.032 81.1611C111.238 80.1438 110.031 79.5074 108.702 79.5426C107.372 79.5778 106.222 80.2769 105.511 81.3309C104.966 82.1631 104.705 83.0987 104.757 84.0402Z" fill="#3F3D56"/>
<path opacity="0.1" d="M104.54 78.6905C104.568 79.6279 104.904 80.5424 105.511 81.3401C106.307 82.3544 107.514 82.9908 108.843 82.9556C108.936 82.9556 109.032 82.9449 109.117 82.9388C109.871 82.8576 110.572 82.5794 111.114 82.1463C111.482 81.8624 111.792 81.533 112.032 81.1703C112.564 80.3375 112.824 79.4079 112.786 78.4704C112.749 77.5329 112.415 76.6189 111.817 75.816C111.021 74.7986 109.815 74.1622 108.485 74.1974C107.156 74.2326 106.007 74.9317 105.296 75.9858C104.751 76.8164 104.49 77.7503 104.54 78.6905Z" fill="#3F3D56"/>
<path opacity="0.1" d="M108.626 77.6062C110.902 77.5456 112.669 75.5366 112.571 73.119C112.473 70.7013 110.548 68.7906 108.272 68.8512C105.995 68.9118 104.229 70.9208 104.327 73.3385C104.424 75.7561 106.349 77.6668 108.626 77.6062Z" fill="#3F3D56"/>
<path opacity="0.1" d="M108.41 72.2574C110.686 72.1968 112.452 70.1878 112.354 67.7702C112.257 65.3526 110.332 63.4418 108.055 63.5025C105.779 63.5631 104.013 65.5721 104.11 67.9897C104.208 70.4073 106.133 72.3181 108.41 72.2574Z" fill="#3F3D56"/>
<path opacity="0.1" d="M108.193 66.9071C110.47 66.8465 112.236 64.8375 112.138 62.4199C112.04 60.0023 110.116 58.0915 107.839 58.1521C105.563 58.2128 103.796 60.2218 103.894 62.6394C103.992 65.057 105.917 66.9677 108.193 66.9071Z" fill="#3F3D56"/>
<path opacity="0.1" d="M121.972 25.5127C122.512 24.9163 123 24.2901 123.432 23.6387L112.543 22.4852L124.258 22.2435C125.301 20.2309 125.828 18.0667 125.804 15.8834C125.781 13.7001 125.208 11.5437 124.122 9.54603L108.675 16.5755L122.819 7.54963C121.379 5.69131 119.484 4.09277 117.251 2.85314C115.018 1.61351 112.495 0.759222 109.838 0.343251C107.182 -0.0727191 104.448 -0.0415026 101.807 0.434965C99.1655 0.911432 96.6731 1.82299 94.4841 3.11311C92.2951 4.40324 90.4561 6.04442 89.0813 7.93488C87.7064 9.82535 86.8249 11.9248 86.4915 14.103C86.1581 16.2812 86.3798 18.4918 87.143 20.5976C87.9062 22.7035 89.1946 24.6597 90.9281 26.3449C90.0877 27.2734 89.3727 28.2725 88.7953 29.325L103.092 34.8751L87.9373 31.1944C86.987 33.7463 86.8362 36.45 87.4984 39.0611C88.1605 41.6721 89.6148 44.108 91.7296 46.1483C89.5357 48.5721 88.2267 51.4477 87.9524 54.4465C87.6782 57.4452 88.4496 60.4461 90.1786 63.106C91.9075 65.7658 94.5242 67.9773 97.7295 69.4877C100.935 70.998 104.599 71.7461 108.304 71.6466C112.009 71.5471 115.604 70.6039 118.679 68.9248C121.754 67.2458 124.185 64.8987 125.693 62.1518C127.201 59.405 127.726 56.3693 127.208 53.3918C126.69 50.4143 125.149 47.6152 122.762 45.3146C125.386 42.4197 126.734 38.8938 126.591 35.3027C126.447 31.7117 124.821 28.2639 121.972 25.5127Z" fill="#6C63FF"/>
<path opacity="0.1" d="M87.1037 36.3529C87.2415 39.9462 88.8716 43.3963 91.7296 46.1437C89.5351 48.5672 88.2255 51.4426 87.9505 54.4413C87.6755 57.4401 88.4463 60.4411 90.1746 63.1012C91.903 65.7613 94.5192 67.9733 97.7242 69.4841C100.929 70.9949 104.593 71.7436 108.298 71.6446C112.003 71.5456 115.599 70.6029 118.674 68.9243C121.75 67.2457 124.181 64.8989 125.69 62.1523C127.198 59.4057 127.724 56.37 127.207 53.3925C126.689 50.4149 125.149 47.6156 122.763 45.3146C125.299 42.5211 87.0321 34.5554 87.1037 36.3529Z" fill="black"/>
</g>
<g opacity="0.1">
<path opacity="0.1" d="M61.5114 112.221C61.5114 112.322 61.4982 112.423 61.4831 112.527C60.4396 112.19 59.4143 111.83 58.4073 111.445C57.8708 111.388 57.3716 111.191 56.9854 110.884C56.6912 110.763 56.3989 110.639 56.1085 110.514C56.1741 110.402 56.2484 110.293 56.3311 110.189C56.8968 109.464 57.7529 109.011 58.6996 109.036C59.6463 109.06 60.4647 109.556 60.9626 110.306C61.3524 110.893 61.5418 111.554 61.5114 112.221Z" fill="#3F3D56"/>
<path opacity="0.1" d="M61.6585 108.413C61.6399 109.08 61.403 109.731 60.9721 110.299C60.4063 111.022 59.5483 111.476 58.6035 111.451L58.4149 111.439C57.8783 111.382 57.3792 111.185 56.993 110.878C56.7307 110.676 56.5098 110.442 56.3386 110.183C55.9604 109.591 55.7753 108.93 55.8011 108.264C55.8268 107.597 56.0625 106.947 56.4857 106.376C57.0515 105.65 57.9095 105.198 58.8543 105.222C59.7991 105.247 60.6194 105.742 61.1267 106.492C61.5119 107.082 61.6955 107.746 61.6585 108.413Z" fill="#3F3D56"/>
<path opacity="0.1" d="M61.8108 104.613C61.8778 102.892 60.619 101.464 58.9992 101.423C57.3795 101.381 56.0121 102.742 55.9451 104.462C55.8781 106.182 57.1368 107.611 58.7566 107.652C60.3764 107.694 61.7438 106.333 61.8108 104.613Z" fill="#3F3D56"/>
<path opacity="0.1" d="M61.9574 100.805C62.0244 99.0853 60.7656 97.6572 59.1459 97.6156C57.5261 97.5741 56.1587 98.9349 56.0917 100.655C56.0247 102.375 57.2834 103.803 58.9032 103.845C60.523 103.887 61.8904 102.526 61.9574 100.805Z" fill="#3F3D56"/>
<path opacity="0.1" d="M62.1058 96.9969C62.1728 95.2767 60.9141 93.8486 59.2943 93.807C57.6745 93.7655 56.3071 95.1263 56.2401 96.8465C56.1731 98.5667 57.4319 99.9949 59.0516 100.036C60.6714 100.078 62.0388 98.7171 62.1058 96.9969Z" fill="#3F3D56"/>
<path opacity="0.1" d="M49.2027 70.5825C48.8182 70.158 48.4697 69.7129 48.1598 69.25L55.9067 68.4147L47.5696 68.2618C46.8244 66.83 46.4475 65.2899 46.4617 63.7357C46.476 62.1816 46.8812 60.6463 47.6525 59.2236L58.6525 64.2154L48.5785 57.7978C49.5979 56.4693 50.9436 55.3252 52.5317 54.4367C54.1198 53.5483 55.9163 52.9345 57.8094 52.6336C59.7026 52.3327 61.6518 52.3512 63.5357 52.6878C65.4197 53.0244 67.1981 53.672 68.7602 54.5903C70.3223 55.5086 71.6347 56.6778 72.6157 58.0253C73.5967 59.3728 74.2253 60.8697 74.4623 62.4228C74.6994 63.9759 74.5399 65.5519 73.9936 67.0528C73.4474 68.5537 72.5262 69.9474 71.2874 71.147C71.8873 71.8072 72.3976 72.5181 72.8092 73.2673L62.641 77.2264L73.4221 74.5952C74.1007 76.411 74.2108 78.3353 73.7426 80.1943C73.2744 82.0533 72.2427 83.7883 70.7405 85.2427C72.305 86.9656 73.2404 89.011 73.4395 91.1448C73.6387 93.2787 73.0937 95.415 71.8667 97.3094C70.6398 99.2038 68.7806 100.78 66.5015 101.858C64.2225 102.935 61.6156 103.471 58.9789 103.403C56.3423 103.336 53.7823 102.668 51.5917 101.475C49.401 100.283 47.6681 98.6151 46.591 96.6616C45.514 94.7081 45.1362 92.5482 45.501 90.4288C45.8658 88.3094 46.9584 86.3161 48.6539 84.6766C46.7843 82.6179 45.822 80.1091 45.9216 77.5533C46.0211 74.9975 47.1767 72.543 49.2027 70.584V70.5825Z" fill="#6C63FF"/>
<path opacity="0.1" d="M74.0199 78.2713C73.9254 80.8283 72.7699 83.2846 70.7405 85.2427C72.305 86.9656 73.2403 89.011 73.4395 91.1448C73.6387 93.2787 73.0936 95.4149 71.8667 97.3094C70.6398 99.2038 68.7806 100.78 66.5015 101.858C64.2224 102.935 61.6156 103.471 58.9789 103.403C56.3423 103.336 53.7823 102.668 51.5917 101.475C49.401 100.283 47.6681 98.6151 46.591 96.6616C45.514 94.7081 45.1362 92.5482 45.501 90.4288C45.8658 88.3094 46.9584 86.3161 48.6539 84.6766C46.8454 82.6879 74.0727 76.9909 74.0199 78.2713Z" fill="black"/>
</g>
<g opacity="0.1">
<path opacity="0.1" d="M159.719 92.3257C159.719 92.4282 159.705 92.5276 159.692 92.6316C158.648 92.2951 157.622 91.9345 156.616 91.5501C156.079 91.4929 155.58 91.2959 155.193 90.9886C154.9 90.8678 154.606 90.7439 154.316 90.6184C154.382 90.5069 154.456 90.3986 154.538 90.2941C155.104 89.569 155.96 89.1161 156.907 89.1406C157.854 89.1651 158.672 89.6608 159.17 90.4104C159.56 90.9978 159.749 91.659 159.719 92.3257Z" fill="#3F3D56"/>
<path opacity="0.1" d="M159.877 88.518C159.858 89.1851 159.62 89.8361 159.189 90.4042C158.623 91.1263 157.767 91.5807 156.82 91.5562L156.632 91.5439C156.095 91.4868 155.595 91.2898 155.208 90.9825C154.946 90.7802 154.725 90.5458 154.553 90.288C154.175 89.6959 153.99 89.0351 154.016 88.3686C154.042 87.7021 154.277 87.052 154.701 86.4803C155.266 85.7567 156.124 85.3023 157.069 85.3268C158.014 85.3513 158.836 85.8469 159.342 86.5965C159.728 87.1868 159.913 87.8502 159.877 88.518Z" fill="#3F3D56"/>
<path opacity="0.1" d="M160.024 84.7161C160.091 82.9959 158.833 81.5678 157.213 81.5263C155.593 81.4847 154.226 82.8456 154.159 84.5658C154.092 86.2859 155.35 87.7141 156.97 87.7556C158.59 87.7971 159.957 86.4363 160.024 84.7161Z" fill="#3F3D56"/>
<path opacity="0.1" d="M160.173 80.9091C160.24 79.1889 158.981 77.7607 157.361 77.7192C155.742 77.6777 154.374 79.0385 154.307 80.7587C154.24 82.4789 155.499 83.907 157.119 83.9485C158.739 83.9901 160.106 82.6292 160.173 80.9091Z" fill="#3F3D56"/>
<path opacity="0.1" d="M160.321 77.1021C160.388 75.3819 159.13 73.9537 157.51 73.9122C155.89 73.8707 154.523 75.2315 154.456 76.9517C154.389 78.6719 155.647 80.1 157.267 80.1416C158.887 80.1831 160.254 78.8223 160.321 77.1021Z" fill="#3F3D56"/>
<path opacity="0.1" d="M147.41 50.6873C147.025 50.2634 146.677 49.8182 146.369 49.3548L154.116 48.5272L145.779 48.3635C145.034 46.9317 144.657 45.3917 144.671 43.8376C144.685 42.2836 145.089 40.7482 145.86 39.3254L156.86 44.3171L146.786 37.9026C147.804 36.5708 149.149 35.4234 150.737 34.532C152.326 33.6406 154.124 33.0243 156.019 32.7216C157.914 32.4188 159.866 32.4362 161.753 32.7725C163.639 33.1089 165.42 33.757 166.984 34.6764C168.548 35.5959 169.862 36.7669 170.844 38.1166C171.825 39.4662 172.453 40.9654 172.689 42.5206C172.924 44.0759 172.762 45.6538 172.213 47.1561C171.663 48.6583 170.738 50.0525 169.495 51.2518C170.094 51.9121 170.604 52.623 171.015 53.3721L160.846 57.3312L171.628 54.7C172.307 56.5154 172.418 58.4397 171.95 60.2986C171.481 62.1575 170.449 63.8923 168.946 65.3459C170.511 67.0686 171.446 69.1137 171.646 71.2474C171.845 73.3811 171.3 75.5173 170.074 77.4117C168.847 79.306 166.988 80.8821 164.709 81.9598C162.43 83.0374 159.824 83.573 157.187 83.5055C154.551 83.4379 151.991 82.7698 149.8 81.5776C147.61 80.3854 145.877 78.7172 144.8 76.7638C143.724 74.8104 143.346 72.6506 143.711 70.5313C144.076 68.4121 145.169 66.419 146.865 64.7799C144.995 62.7211 144.033 60.2123 144.133 57.6565C144.232 55.1007 145.388 52.6462 147.414 50.6873H147.41Z" fill="#6C63FF"/>
<path opacity="0.1" d="M172.229 58.3761C172.135 60.933 170.978 63.389 168.948 65.3459C170.512 67.0687 171.447 69.1137 171.647 71.2473C171.846 73.381 171.301 75.517 170.074 77.4112C168.847 79.3054 166.988 80.8814 164.71 81.9589C162.431 83.0365 159.824 83.5721 157.188 83.5045C154.552 83.4369 151.992 82.7689 149.802 81.5768C147.611 80.3847 145.878 78.7167 144.802 76.7634C143.725 74.8102 143.347 72.6505 143.712 70.5313C144.077 68.4122 145.169 66.4191 146.865 64.7799C145.054 62.7927 172.278 57.0941 172.229 58.3761Z" fill="black"/>
</g>
<path d="M36.4904 116.549C42.428 116.549 47.2414 115.798 47.2414 114.872C47.2414 113.946 42.428 113.195 36.4904 113.195C30.5528 113.195 25.7394 113.946 25.7394 114.872C25.7394 115.798 30.5528 116.549 36.4904 116.549Z" fill="#6C63FF"/>
<path d="M36.3113 115.489C37.0028 115.489 37.5634 114.893 37.5634 114.159C37.5634 113.425 37.0028 112.83 36.3113 112.83C35.6197 112.83 35.0591 113.425 35.0591 114.159C35.0591 114.893 35.6197 115.489 36.3113 115.489Z" fill="#3F3D56"/>
<path d="M36.3113 113.864C37.0028 113.864 37.5634 113.269 37.5634 112.535C37.5634 111.8 37.0028 111.205 36.3113 111.205C35.6197 111.205 35.0591 111.8 35.0591 112.535C35.0591 113.269 35.6197 113.864 36.3113 113.864Z" fill="#3F3D56"/>
<path d="M36.3113 112.239C37.0028 112.239 37.5634 111.644 37.5634 110.91C37.5634 110.176 37.0028 109.58 36.3113 109.58C35.6197 109.58 35.0591 110.176 35.0591 110.91C35.0591 111.644 35.6197 112.239 36.3113 112.239Z" fill="#3F3D56"/>
<path d="M36.3113 110.615C37.0028 110.615 37.5634 110.019 37.5634 109.285C37.5634 108.551 37.0028 107.956 36.3113 107.956C35.6197 107.956 35.0591 108.551 35.0591 109.285C35.0591 110.019 35.6197 110.615 36.3113 110.615Z" fill="#3F3D56"/>
<path d="M36.3113 108.99C37.0028 108.99 37.5634 108.395 37.5634 107.661C37.5634 106.926 37.0028 106.331 36.3113 106.331C35.6197 106.331 35.0591 106.926 35.0591 107.661C35.0591 108.395 35.6197 108.99 36.3113 108.99Z" fill="#3F3D56"/>
<path d="M36.3113 107.365C37.0028 107.365 37.5634 106.77 37.5634 106.036C37.5634 105.302 37.0028 104.706 36.3113 104.706C35.6197 104.706 35.0591 105.302 35.0591 106.036C35.0591 106.77 35.6197 107.365 36.3113 107.365Z" fill="#3F3D56"/>
<path d="M36.3113 105.741C37.0028 105.741 37.5634 105.145 37.5634 104.411C37.5634 103.677 37.0028 103.082 36.3113 103.082C35.6197 103.082 35.0591 103.677 35.0591 104.411C35.0591 105.145 35.6197 105.741 36.3113 105.741Z" fill="#3F3D56"/>
<path d="M40.9975 93.2925C41.1682 93.1157 41.3238 92.9297 41.4633 92.7357L38.1744 92.2966L41.7311 92.3196C42.0722 91.7171 42.2583 91.0645 42.2781 90.4016C42.2978 89.7388 42.1509 89.0797 41.8461 88.4645L37.0731 90.4731L41.4746 87.8434C41.0619 87.2657 40.5071 86.7632 39.8446 86.367C39.1821 85.9708 38.4263 85.6895 37.624 85.5405C36.8217 85.3916 35.9902 85.3782 35.1813 85.5012C34.3724 85.6242 33.6033 85.881 32.922 86.2555C32.2407 86.63 31.6617 87.1143 31.2211 87.6782C30.7805 88.2421 30.4876 88.8736 30.3608 89.5333C30.2341 90.1929 30.276 90.8667 30.4841 91.5127C30.6922 92.1586 31.0619 92.7629 31.5703 93.288C31.3044 93.5631 31.0755 93.8606 30.8877 94.1752L35.1571 95.9743L30.6048 94.7352C30.285 95.5017 30.2058 96.3208 30.3744 97.1184C30.543 97.9159 30.954 98.6669 31.5703 99.3032C30.8749 100.021 30.4424 100.883 30.3222 101.79C30.2021 102.698 30.3992 103.615 30.891 104.436C31.3827 105.257 32.1493 105.949 33.1032 106.433C34.057 106.918 35.1596 107.175 36.2848 107.175C37.4101 107.175 38.5127 106.918 39.4665 106.433C40.4203 105.949 41.187 105.257 41.6787 104.436C42.1705 103.615 42.3676 102.698 42.2474 101.79C42.1273 100.883 41.6948 100.021 40.9994 99.3032C41.8301 98.4455 42.2817 97.3863 42.2817 96.2956C42.2817 95.2048 41.8301 94.1456 40.9994 93.288L40.9975 93.2925Z" fill="#6C63FF"/>
<path opacity="0.1" d="M30.288 96.3002C30.2858 97.3912 30.7376 98.451 31.5703 99.3078C30.8749 100.025 30.4424 100.887 30.3222 101.795C30.2021 102.703 30.3992 103.619 30.891 104.44C31.3827 105.261 32.1493 105.954 33.1032 106.438C34.057 106.922 35.1596 107.179 36.2848 107.179C37.4101 107.179 38.5127 106.922 39.4665 106.438C40.4203 105.954 41.187 105.261 41.6787 104.44C42.1705 103.619 42.3676 102.703 42.2474 101.795C42.1273 100.887 41.6948 100.025 40.9994 99.3078C41.8008 98.4801 30.288 95.754 30.288 96.3002Z" fill="black"/>
<path d="M65.3432 79.1234V113.697C62.2304 113.574 59.1194 113.425 56.0104 113.252L54.5941 113.171V79.1234C54.5941 78.9462 54.6371 78.7708 54.7207 78.6071C54.8043 78.4434 54.9268 78.2946 55.0813 78.1693C55.2357 78.044 55.4191 77.9446 55.6209 77.8768C55.8227 77.809 56.039 77.7741 56.2574 77.7741H63.6799C63.8984 77.7741 64.1147 77.809 64.3165 77.8768C64.5182 77.9446 64.7016 78.044 64.8561 78.1693C65.0105 78.2946 65.133 78.4434 65.2166 78.6071C65.3002 78.7708 65.3432 78.9462 65.3432 79.1234Z" fill="#3F3D56"/>
<path d="M79.1097 114.127V56.0232C79.1097 55.6654 79.285 55.3222 79.5969 55.0691C79.9088 54.8161 80.3319 54.674 80.773 54.674H88.1956C88.414 54.674 88.6303 54.7089 88.8321 54.7767C89.0339 54.8445 89.2172 54.9439 89.3717 55.0691C89.5261 55.1944 89.6487 55.3432 89.7322 55.5069C89.8158 55.6706 89.8588 55.8461 89.8588 56.0232V114.278L79.1097 114.127Z" fill="#3F3D56"/>
<path d="M103.625 114.309V68.1088C103.625 67.7509 103.8 67.4077 104.112 67.1547C104.424 66.9016 104.847 66.7595 105.289 66.7595H112.711C113.152 66.7595 113.575 66.9016 113.887 67.1547C114.199 67.4077 114.374 67.7509 114.374 68.1088V114.21L103.625 114.309Z" fill="#3F3D56"/>
<path d="M138.89 33.841V113.751C135.307 113.833 131.724 113.911 128.141 113.983V33.841C128.141 33.4831 128.316 33.1399 128.628 32.8869C128.94 32.6338 129.363 32.4917 129.804 32.4917H137.227C137.668 32.4917 138.091 32.6338 138.403 32.8869C138.715 33.1399 138.89 33.4831 138.89 33.841Z" fill="#3F3D56"/>
<path d="M163.405 49.904V113.085C159.822 113.226 156.239 113.325 152.656 113.414V49.904C152.656 49.5461 152.832 49.2029 153.144 48.9499C153.455 48.6968 153.879 48.5547 154.32 48.5547H161.742C162.183 48.5547 162.606 48.6968 162.918 48.9499C163.23 49.2029 163.405 49.5461 163.405 49.904Z" fill="#3F3D56"/>
<path d="M60.063 58.9605L84.5785 36.7782L109.094 47.9458L133.61 13.678L158.125 30.047" stroke="#3F3D56" stroke-width="7" stroke-miterlimit="10" stroke-linecap="round"/>
<path d="M59.9687 63.244C62.885 63.244 65.249 61.3262 65.249 58.9605C65.249 56.5948 62.885 54.677 59.9687 54.677C57.0525 54.677 54.6885 56.5948 54.6885 58.9605C54.6885 61.3262 57.0525 63.244 59.9687 63.244Z" fill="#6C63FF"/>
<path d="M84.4842 41.0617C87.4004 41.0617 89.7645 39.1439 89.7645 36.7782C89.7645 34.4125 87.4004 32.4948 84.4842 32.4948C81.568 32.4948 79.204 34.4125 79.204 36.7782C79.204 39.1439 81.568 41.0617 84.4842 41.0617Z" fill="#6C63FF"/>
<path d="M109 52.2293C111.916 52.2293 114.28 50.3116 114.28 47.9459C114.28 45.5802 111.916 43.6624 109 43.6624C106.084 43.6624 103.719 45.5802 103.719 47.9459C103.719 50.3116 106.084 52.2293 109 52.2293Z" fill="#6C63FF"/>
<path d="M133.515 17.9615C136.432 17.9615 138.796 16.0438 138.796 13.6781C138.796 11.3124 136.432 9.39459 133.515 9.39459C130.599 9.39459 128.235 11.3124 128.235 13.6781C128.235 16.0438 130.599 17.9615 133.515 17.9615Z" fill="#6C63FF"/>
<path d="M180.661 54.3711C183.577 54.3711 185.941 52.4533 185.941 50.0876C185.941 47.7219 183.577 45.8041 180.661 45.8041C177.744 45.8041 175.38 47.7219 175.38 50.0876C175.38 52.4533 177.744 54.3711 180.661 54.3711Z" fill="#6C63FF"/>
<path opacity="0.1" d="M44.0676 111.029C46.0131 111.029 47.5903 110.813 47.5903 110.546C47.5903 110.279 46.0131 110.062 44.0676 110.062C42.1221 110.062 40.5449 110.279 40.5449 110.546C40.5449 110.813 42.1221 111.029 44.0676 111.029Z" fill="#6C63FF"/>
<path d="M41.7028 108.302C41.7028 108.302 43.7111 108.251 44.3165 107.901C44.9218 107.55 47.4073 107.136 47.5582 107.694C47.7091 108.253 50.5755 110.485 48.3125 110.5C46.0495 110.515 43.0417 110.212 42.4382 109.914C41.8348 109.616 41.7028 108.302 41.7028 108.302Z" fill="#A8A8A8"/>
<path opacity="0.2" d="M48.3484 110.304C46.0854 110.319 43.0794 110.018 42.4741 109.72C42.0139 109.492 41.831 108.676 41.7688 108.3H41.7028C41.7028 108.3 41.8291 109.614 42.4345 109.912C43.0398 110.211 46.0401 110.514 48.3088 110.498C48.9631 110.498 49.1894 110.306 49.1762 110.026C49.0857 110.195 48.8368 110.301 48.3484 110.304Z" fill="black"/>
<path opacity="0.1" d="M200.612 115.533C204.186 115.533 207.083 115.136 207.083 114.646C207.083 114.156 204.186 113.758 200.612 113.758C197.039 113.758 194.142 114.156 194.142 114.646C194.142 115.136 197.039 115.533 200.612 115.533Z" fill="#6C63FF"/>
<path d="M196.273 110.523C196.273 110.523 199.964 110.431 201.076 109.789C202.189 109.146 206.753 108.38 207.028 109.409C207.303 110.439 212.576 114.534 208.408 114.562C204.241 114.589 198.727 114.035 197.616 113.491C196.505 112.946 196.273 110.523 196.273 110.523Z" fill="#A8A8A8"/>
<path opacity="0.2" d="M208.478 114.204C204.311 114.231 198.796 113.677 197.686 113.133C196.841 112.715 196.503 111.216 196.39 110.532H196.268C196.268 110.532 196.501 112.948 197.61 113.495C198.719 114.043 204.237 114.598 208.403 114.566C209.606 114.566 210.021 114.211 209.998 113.697C209.83 114.003 209.372 114.197 208.478 114.204Z" fill="black"/>
<path d="M160.218 52.7143C160.253 52.9822 160.385 53.2359 160.596 53.444C160.869 53.6949 161.278 53.8096 161.646 53.9595C162.598 54.3547 163.325 55.0326 163.675 55.8519C164.303 57.3389 164.384 58.9115 165.184 60.3465C165.983 61.7815 166.922 63.1598 167.613 64.63C168.005 65.4637 168.318 66.3311 168.893 67.0899C169.172 67.4631 169.527 67.7948 169.943 68.0705C169.9 68.609 169.883 69.1414 169.887 69.6799C170.014 69.6779 170.14 69.702 170.253 69.7502C170.366 69.7984 170.462 69.8689 170.532 69.9553C170.671 70.1297 170.768 70.3246 170.815 70.5289C171.073 71.3963 170.754 72.3203 170.986 73.1923C171.624 75.6179 171.428 78.1388 170.421 80.4804C170.162 81.0739 169.838 83.0382 170.113 83.6272C171.139 83.5431 172.048 84.054 173.008 84.3921C173.086 84.8536 173.039 85.3233 172.872 85.7689C172.527 86.5751 172.529 87.4517 172.535 88.3038L172.582 94.6158C172.582 95.4159 172.595 96.2267 172.842 97.0024C173.123 97.8759 173.713 98.7662 173.694 99.6688C173.643 101.612 174.775 103.463 174.684 105.39C174.667 105.761 174.605 106.128 174.562 106.495C174.45 107.473 174.481 108.458 174.652 109.431C174.996 111.367 175.903 113.272 175.676 115.219C175.661 115.351 175.607 115.525 175.454 115.576C175.642 115.749 175.842 115.92 176.046 116.084C176.005 116.139 175.949 116.187 175.882 116.223C175.659 116.317 175.413 116.37 175.162 116.376C174.867 116.382 174.58 116.458 174.337 116.593C174.161 116.731 174.041 116.909 173.994 117.104C173.927 117.297 173.913 117.499 173.952 117.697C173.991 117.894 174.083 118.082 174.221 118.248C174.389 118.42 174.609 118.554 174.86 118.637C175.731 118.943 176.731 118.721 177.639 118.498L181.2 117.623C181.417 117.586 181.617 117.501 181.779 117.378C181.853 117.307 181.902 117.222 181.92 117.13C182.707 117.283 183.57 117.095 184.372 116.901L187.932 116.024C188.15 115.988 188.35 115.903 188.511 115.779C188.575 115.716 188.621 115.642 188.647 115.563C188.672 115.484 188.675 115.401 188.656 115.32C188.683 115.311 188.709 115.305 188.736 115.294C189.007 115.195 189.301 115.001 189.235 114.767C189.188 114.614 189 114.525 188.919 114.384C188.88 114.293 188.872 114.195 188.896 114.1C188.919 114.005 188.972 113.917 189.051 113.844C189.19 113.691 189.379 113.564 189.507 113.403C189.918 112.893 189.639 112.221 189.484 111.623C189.15 110.345 189.46 109.011 189.249 107.717C189.177 107.281 189.047 106.853 188.943 106.42C188.723 105.397 188.578 104.364 188.507 103.327C188.372 101.846 187.864 100.386 188.155 98.9177C188.296 98.0557 188.356 97.1863 188.334 96.317C188.354 95.7632 188.325 95.2089 188.245 94.6587C188.172 94.2487 188.042 93.8463 187.985 93.4348C187.939 92.9723 187.929 92.5078 187.955 92.0442C187.981 91.0108 187.863 89.9783 187.604 88.9663C187.227 87.5757 186.518 86.2447 186.216 84.8511C186.318 84.8694 186.42 84.8878 186.518 84.9092C186.529 83.8383 185.373 81.5099 184.945 80.4941C184.882 80.3697 184.844 80.2381 184.832 80.104C184.858 79.9273 184.898 79.752 184.951 79.5793C185.005 79.2091 184.762 78.8572 184.696 78.487C184.67 78.2266 184.694 77.9645 184.766 77.7099C185.07 76.3407 185.447 74.9822 185.824 73.6253C185.988 73.1338 186.045 72.6228 185.992 72.1154C185.948 71.8465 185.976 71.5731 186.073 71.3136C186.171 71.0542 186.336 70.8148 186.557 70.6115C186.723 70.4875 186.864 70.3436 186.976 70.1847C187.039 70.0484 187.067 69.9033 187.059 69.7579C187.052 69.1286 186.937 68.5032 186.72 67.8992C187.052 67.4112 187.174 66.8115 187.27 66.2455C187.482 64.9956 187.693 63.7396 187.685 62.4775C187.702 61.8042 187.587 61.133 187.346 60.4888C187.169 60.0909 186.954 59.7052 186.701 59.3353C185.709 57.7856 184.76 56.1548 183.508 54.7352C183.131 54.3037 183.369 53.7087 183.395 53.1763C183.423 52.5338 183.11 51.9172 182.803 51.3267C182.646 50.9633 182.405 50.6274 182.094 50.3369C181.988 50.2428 181.86 50.1672 181.718 50.1146C181.575 50.062 181.421 50.0335 181.264 50.031C181.086 50.0486 180.916 50.0969 180.763 50.1726C180.61 50.2484 180.48 50.3498 180.38 50.47C180.151 50.722 179.987 51.0082 179.896 51.312C179.805 51.6158 179.789 51.9312 179.85 52.24C179.975 52.8582 180.307 53.4365 180.81 53.9121C181.052 54.1514 181.33 54.3657 181.637 54.55C181.949 55.3537 182.263 56.1569 182.58 56.9595C183.078 58.2369 183.576 59.5204 184.278 60.729C184.483 61.0793 184.709 61.4357 184.734 61.8228C184.76 62.2404 184.545 62.6382 184.374 63.0313C184.012 63.8508 183.807 64.7103 183.766 65.58C183.711 65.5998 183.658 65.6234 183.608 65.6504C183.014 65.9655 182.827 66.6524 182.209 66.9339C181.849 67.0976 181.411 67.0869 181.008 67.1618C180.972 67.1618 180.936 67.1771 180.898 67.1863C180.883 67.1251 180.868 67.0654 180.859 67.0027C180.853 66.9636 180.853 66.9241 180.859 66.8849C181.82 66.4561 182.628 65.8319 183.203 65.0736C183.324 64.9332 183.417 64.7784 183.48 64.6147C183.531 64.4185 183.54 64.2168 183.508 64.0181C183.477 63.3547 183.36 62.6959 183.159 62.0522C182.958 61.4055 182.518 60.8242 181.898 60.3863C181.588 60.1843 181.232 60.0329 180.925 59.8294C180.325 59.4363 179.914 58.8549 179.227 58.5627C178.79 58.3902 178.292 58.3496 177.822 58.4483C177.351 58.547 176.94 58.7785 176.661 59.1012C176.569 59.2505 176.441 59.3828 176.284 59.4898C176.164 59.5359 176.046 59.587 175.933 59.6428C175.725 59.7774 175.714 60.036 175.782 60.2455C175.911 60.6762 175.983 61.1167 175.997 61.5596C175.388 62.1391 175.053 62.875 175.051 63.6362C175.049 64.3975 175.38 65.1346 175.986 65.7161C175.986 66.0007 175.986 66.2852 175.972 66.5698C175.972 66.6233 175.972 66.6784 175.959 66.7319C175.742 66.6705 175.547 66.5652 175.393 66.426C175.182 66.2118 175.145 65.8967 174.886 65.7207C174.7 65.6214 174.489 65.5585 174.268 65.5372C173.718 65.4359 173.203 65.238 172.759 64.9574C172.41 64.7386 172.048 64.4586 171.641 64.3944C170.938 63.3249 170.117 62.309 169.189 61.3592C168.954 61.1344 168.739 60.8956 168.548 60.6448C168.143 60.0711 168.022 59.3965 167.765 58.7677C167.049 57.0054 165.261 55.5918 164.825 53.7683C164.667 53.1074 164.15 52.5322 163.796 51.9234C163.556 51.5118 163.292 51.0774 162.813 50.8418C162.197 50.5358 161.344 50.6766 160.831 51.0881C160.583 51.3033 160.399 51.5617 160.292 51.8435C160.186 52.1254 160.161 52.4232 160.218 52.7143ZM182.609 114.624C182.386 114.719 182.139 114.771 181.888 114.777C181.761 114.788 181.636 114.804 181.511 114.826C181.464 114.505 181.438 114.179 181.407 113.862C181.307 112.824 181.107 111.793 180.909 110.763C180.702 109.692 180.604 108.52 180.155 107.492C179.433 105.819 178.701 104.095 178.794 102.322C178.814 101.919 178.877 101.52 178.903 101.119C178.963 100.126 178.792 99.112 179.092 98.1467C179.225 97.7076 179.454 97.2884 179.54 96.8417C179.596 96.4383 179.602 96.0315 179.559 95.6271C179.477 94.2232 179.621 92.8166 179.987 91.443C180.338 91.8148 180.453 92.2951 180.553 92.7556L181.26 95.8672C181.681 97.7137 182.052 99.6719 183.167 101.315C183.01 101.907 182.856 102.539 183.114 103.105C183.225 103.35 183.408 103.564 183.521 103.812C183.71 104.223 183.683 104.676 183.74 105.112C183.863 106.03 184.33 106.932 183.987 107.818C183.634 108.731 183.405 109.673 183.303 110.627C183.284 110.892 183.246 111.156 183.189 111.418C183.129 111.653 183.031 111.877 182.976 112.118C182.901 112.458 182.92 112.806 183.031 113.139C183.116 113.323 183.168 113.516 183.186 113.712C183.186 113.908 182.89 114.049 182.652 114.08C182.722 114.153 182.797 114.223 182.874 114.292C182.829 114.422 182.736 114.538 182.609 114.624Z" fill="url(#paint0_linear)"/>
<path d="M175.162 116.39C174.867 116.396 174.58 116.471 174.337 116.607C174.16 116.743 174.04 116.92 173.994 117.115C173.927 117.306 173.913 117.507 173.952 117.703C173.991 117.899 174.083 118.086 174.221 118.25C174.389 118.421 174.609 118.555 174.86 118.637C175.731 118.943 176.731 118.72 177.639 118.498L181.2 117.629C181.417 117.593 181.617 117.509 181.779 117.386C181.877 117.278 181.931 117.149 181.934 117.016C181.936 116.882 181.888 116.752 181.794 116.642C181.603 116.426 181.342 116.257 181.04 116.154C179.933 115.717 178.684 115.617 177.468 115.599C177.015 115.599 176.568 115.51 176.261 115.793C176.099 115.946 176.129 116.11 175.884 116.24C175.66 116.333 175.413 116.384 175.162 116.39Z" fill="#3F3D56"/>
<path d="M181.888 114.802C181.594 114.809 181.308 114.884 181.064 115.019C180.887 115.155 180.767 115.333 180.721 115.527C180.654 115.718 180.64 115.919 180.679 116.115C180.718 116.312 180.81 116.499 180.947 116.663C181.116 116.834 181.336 116.967 181.586 117.049C182.46 117.355 183.457 117.133 184.366 116.911L187.927 116.041C188.144 116.005 188.344 115.921 188.506 115.798C188.603 115.691 188.657 115.562 188.66 115.429C188.663 115.296 188.614 115.165 188.521 115.056C188.329 114.84 188.068 114.671 187.766 114.568C186.657 114.13 185.409 114.029 184.193 114.011C183.74 114.011 183.295 113.924 182.986 114.207C182.824 114.36 182.854 114.522 182.609 114.652C182.386 114.746 182.139 114.797 181.888 114.802Z" fill="#3F3D56"/>
<path d="M178.794 83.4559C180.892 83.2848 183.002 83.2368 185.109 83.3121C185.248 83.3109 185.386 83.3285 185.518 83.3641C185.982 83.517 186.054 84.0096 186.097 84.412C186.286 86.0458 187.165 87.568 187.606 89.1682C187.865 90.174 187.983 91.2004 187.957 92.2278C187.931 92.6868 187.941 93.1466 187.987 93.6046C188.043 94.0131 188.175 94.4139 188.247 94.8208C188.327 95.3675 188.356 95.9182 188.336 96.4684C188.357 97.3312 188.297 98.1939 188.157 99.0492C187.866 100.507 188.373 101.956 188.509 103.431C188.577 104.462 188.72 105.489 188.937 106.507C189.041 106.937 189.171 107.362 189.243 107.795C189.454 109.082 189.145 110.407 189.479 111.676C189.633 112.27 189.912 112.937 189.501 113.445C189.373 113.598 189.184 113.728 189.045 113.882C188.967 113.954 188.913 114.042 188.89 114.136C188.867 114.231 188.875 114.328 188.913 114.419C188.994 114.558 189.182 114.65 189.23 114.799C189.303 115.033 189.001 115.224 188.73 115.323C186.684 116.073 184.046 115.545 182.665 114.109C182.903 114.078 183.193 113.939 183.199 113.743C183.181 113.548 183.129 113.357 183.044 113.174C182.933 112.844 182.914 112.498 182.989 112.161C183.044 111.926 183.142 111.702 183.203 111.465C183.259 111.205 183.297 110.943 183.316 110.679C183.418 109.731 183.647 108.796 184 107.888C184.343 107.009 183.876 106.118 183.753 105.201C183.697 104.766 183.721 104.318 183.534 103.908C183.421 103.666 183.238 103.449 183.127 103.207C182.869 102.643 183.023 102.016 183.18 101.428C182.065 99.7958 181.694 97.8499 181.273 96.0156L180.566 92.9254C180.461 92.4664 180.346 91.9907 180 91.6205C179.634 92.9848 179.49 94.3822 179.572 95.777C179.615 96.1788 179.609 96.5831 179.554 96.984C179.467 97.4276 179.239 97.8453 179.105 98.2797C178.812 99.2389 178.984 100.246 178.916 101.232C178.89 101.632 178.828 102.028 178.807 102.427C178.714 104.189 179.446 105.903 180.168 107.566C180.611 108.586 180.71 109.746 180.923 110.813C181.111 111.837 181.321 112.86 181.42 113.893C181.513 114.841 181.554 115.868 182.282 116.613C181.617 116.963 180.93 117.32 180.151 117.441C179.244 117.556 178.315 117.41 177.526 117.028C176.742 116.647 176.041 116.164 175.452 115.597C175.605 115.554 175.659 115.374 175.674 115.244C175.901 113.307 174.994 111.419 174.65 109.492C174.479 108.526 174.448 107.547 174.56 106.576C174.603 106.21 174.666 105.845 174.682 105.478C174.773 103.564 173.636 101.72 173.677 99.805C173.696 98.907 173.112 98.0227 172.825 97.1553C172.578 96.3904 172.57 95.5796 172.565 94.7841L172.518 88.5119C172.518 87.6644 172.518 86.7954 172.855 85.9953C173.27 85.0316 172.795 83.9255 172.723 82.9066C174.683 83.4105 176.745 83.5971 178.794 83.4559Z" fill="#696791"/>
<path d="M172.071 65.4347C171.278 64.1201 170.31 62.8802 169.184 61.7371C168.948 61.5139 168.734 61.2766 168.542 61.0273C168.137 60.4567 168.016 59.7866 167.76 59.1624C167.043 57.4123 165.255 56.0064 164.82 54.1967C164.661 53.5388 164.145 52.9728 163.79 52.3609C163.551 51.9524 163.287 51.521 162.808 51.29C162.191 50.9841 161.339 51.1248 160.826 51.5348C160.579 51.7481 160.396 52.0046 160.291 52.2844C160.185 52.5643 160.161 52.86 160.218 53.1487C160.254 53.4152 160.385 53.6674 160.596 53.8739C160.869 54.1232 161.278 54.2364 161.646 54.3864C162.596 54.7771 163.323 55.4508 163.675 56.2665C164.303 57.7428 164.384 59.3062 165.184 60.732C165.983 62.1578 166.923 63.5255 167.613 64.9834C168.005 65.811 168.318 66.6662 168.893 67.4311C169.468 68.196 170.366 68.837 171.45 68.9517C171.443 68.3972 171.547 67.8454 171.758 67.3179C171.993 66.7151 172.412 66.0053 172.071 65.4347Z" fill="#A0616A"/>
<path d="M183.746 66.5789C183.697 65.4972 183.905 64.418 184.359 63.4C184.532 63.0099 184.736 62.6137 184.719 62.1991C184.694 61.8136 184.468 61.4602 184.262 61.1114C183.553 59.9105 183.056 58.6377 182.565 57.3679L181.622 54.9738C181.315 54.7909 181.037 54.5776 180.794 54.3389C180.292 53.8675 179.96 53.2925 179.835 52.6775C179.774 52.3709 179.79 52.0577 179.881 51.7561C179.972 51.4545 180.137 51.1707 180.365 50.9213C180.465 50.8015 180.596 50.7005 180.748 50.625C180.901 50.5496 181.072 50.5014 181.249 50.4838C181.406 50.4866 181.56 50.5152 181.702 50.5678C181.845 50.6203 181.973 50.6959 182.079 50.7898C182.39 51.0777 182.63 51.411 182.788 51.7719C183.095 52.3593 183.408 52.9713 183.38 53.6077C183.354 54.137 183.11 54.7275 183.493 55.1574C184.745 56.5679 185.694 58.1879 186.686 59.7284C186.939 60.0955 187.154 60.4787 187.331 60.8743C187.573 61.5153 187.688 62.1835 187.67 62.8539C187.67 64.1068 187.466 65.3551 187.255 66.5973C187.121 67.376 186.946 68.2235 186.22 68.739C185.466 67.9558 184.708 67.1909 183.746 66.5789Z" fill="#A0616A"/>
<path d="M178.948 67.1756C181.109 67.1756 182.861 65.7544 182.861 64.0012C182.861 62.2481 181.109 60.8269 178.948 60.8269C176.787 60.8269 175.035 62.2481 175.035 64.0012C175.035 65.7544 176.787 67.1756 178.948 67.1756Z" fill="#A0616A"/>
<path d="M180.843 67.3439C180.938 67.9176 181.317 68.4316 181.686 68.9272C181.909 69.2332 182.194 69.559 182.629 69.5927C181.496 70.0754 180.305 70.4639 179.075 70.7523C178.656 70.8662 178.218 70.9236 177.777 70.9221C177.403 70.8995 177.038 70.8233 176.697 70.6972C175.951 70.4337 175.288 70.0363 174.76 69.5349C174.231 69.0336 173.849 68.4413 173.643 67.8028C174.131 67.8133 174.618 67.7831 175.097 67.7126C175.371 67.6955 175.626 67.5936 175.81 67.428C175.92 67.2729 175.971 67.0954 175.957 66.9171C175.976 66.3877 175.978 65.8569 175.957 65.3276C176.919 65.2779 177.883 65.3744 178.801 65.6121C179.178 65.7116 179.555 65.8309 179.933 65.9089C180.17 65.9579 180.825 65.9089 181 66.0206C181.289 66.1782 180.777 66.9538 180.843 67.3439Z" fill="#A0616A"/>
<path d="M179.124 69.273C179.167 68.8547 179.371 68.458 179.707 68.1392C180.044 67.8204 180.495 67.5957 180.998 67.4968C181.402 67.4234 181.839 67.4326 182.199 67.2704C182.818 66.9905 183.005 66.3082 183.599 65.9946C184.193 65.681 185.036 65.8554 185.552 66.2516C186.069 66.6478 186.331 67.2123 186.542 67.7646C186.858 68.5113 187.029 69.2931 187.05 70.0822C187.058 70.2266 187.029 70.3707 186.967 70.506C186.855 70.6639 186.714 70.8068 186.548 70.9297C186.327 71.1312 186.162 71.369 186.064 71.627C185.966 71.8849 185.939 72.1569 185.982 72.4244C186.036 72.9282 185.979 73.4358 185.814 73.9236C185.437 75.2729 185.06 76.6206 184.757 77.9822C184.685 78.2328 184.662 78.4907 184.687 78.7471C184.745 79.1158 184.996 79.4646 184.941 79.8333C184.888 80.0049 184.848 80.1791 184.823 80.3549C184.835 80.488 184.873 80.6186 184.936 80.742C185.364 81.7501 186.52 84.0601 186.508 85.1279C184.5 84.7103 181.539 84.617 179.465 84.6093C178.894 84.6045 178.324 84.6249 177.756 84.6705C176.393 84.7899 174.997 85.1126 173.676 84.8143C172.448 84.5374 171.362 83.7435 170.092 83.8429C169.817 83.2585 170.142 81.308 170.4 80.7175C171.407 78.3923 171.603 75.8866 170.966 73.4769C170.734 72.611 171.052 71.6916 170.794 70.8318C170.747 70.6284 170.651 70.4345 170.511 70.2612C170.441 70.1751 170.345 70.1049 170.232 70.057C170.119 70.0091 169.993 69.9852 169.866 69.9874C169.843 68.6044 170.001 67.2234 170.338 65.8676C170.462 65.3857 170.715 64.8166 171.324 64.734C171.863 64.659 172.316 65.0293 172.75 65.3C173.194 65.5793 173.709 65.7757 174.258 65.8752C174.479 65.8966 174.691 65.9595 174.877 66.0588C175.135 66.2332 175.173 66.5468 175.384 66.7595C175.761 67.1404 176.604 67.1083 176.872 67.5473C176.931 67.6781 176.978 67.812 177.013 67.9481C177.14 68.209 177.356 68.4351 177.636 68.5998C178.056 68.9202 178.567 69.1514 179.124 69.273Z" fill="#F86D70"/>
<path d="M175.769 60.6265C175.701 60.4169 175.712 60.1675 175.92 60.0268C176.023 59.961 176.159 59.9365 176.27 59.8738C176.427 59.7669 176.556 59.6352 176.648 59.4868C176.929 59.1673 177.341 58.939 177.81 58.8424C178.279 58.7458 178.775 58.7871 179.21 58.959C179.891 59.2481 180.302 59.8264 180.908 60.2165C181.215 60.4184 181.571 60.5683 181.881 60.7703C182.5 61.2043 182.94 61.7821 183.142 62.4255C183.343 63.0645 183.46 63.7188 183.491 64.3776C183.523 64.5753 183.514 64.776 183.463 64.9711C183.4 65.1348 183.307 65.2896 183.186 65.4301C182.563 66.195 181.743 66.8895 180.715 67.2842C179.687 67.6789 178.437 67.7432 177.423 67.3301C177.321 67.2967 177.233 67.2398 177.17 67.1664C177.112 67.0547 177.098 66.9313 177.13 66.813C177.185 66.3455 177.071 65.875 176.802 65.4592C176.614 65.1532 176.331 64.8901 176.18 64.5734C176.04 64.2189 175.98 63.8468 176.003 63.475C175.986 62.5127 176.067 61.5535 175.769 60.6265Z" fill="#2D293D"/>
</g>
<defs>
<linearGradient id="paint0_linear" x1="189.716" y1="84.4089" x2="160.194" y2="84.4089" gradientUnits="userSpaceOnUse">
<stop stop-color="#808080" stop-opacity="0.25"/>
<stop offset="0.54" stop-color="#808080" stop-opacity="0.12"/>
<stop offset="1" stop-color="#808080" stop-opacity="0.1"/>
</linearGradient>
<clipPath id="clip0">
<rect width="210" height="120" fill="white"/>
</clipPath>
</defs>
</svg>
