<svg width="250" height="196" viewBox="0 0 226 196" fill="none" xmlns="http://www.w3.org/2000/svg">
<g clip-path="url(#clip0)">
<path d="M34.325 157.67C34.325 169.521 27.6 173.659 19.305 173.659C19.1119 173.659 18.9198 173.657 18.7288 173.652C18.3446 173.643 17.9636 173.625 17.5878 173.597C10.1008 173.042 4.28406 168.691 4.28406 157.67C4.28406 146.266 18.1933 131.875 19.2424 130.806L19.2445 130.805C19.2842 130.764 19.305 130.743 19.305 130.743C19.305 130.743 34.325 145.819 34.325 157.67Z" fill="#3F3D56"/>
<path d="M18.757 171.846L24.2511 163.805L18.7434 172.729L18.7288 173.652C18.3446 173.643 17.9636 173.625 17.5878 173.597L18.1797 161.741L18.1755 161.649L18.1859 161.632L18.2413 160.512L12.72 151.565L18.258 159.672L18.2715 159.909L18.7194 150.951L13.9925 141.707L18.7768 149.377L19.2424 130.806L19.2445 130.743V130.805L19.1672 145.45L23.8722 139.644L19.1474 146.711L19.0232 154.732L23.417 147.035L19.0044 155.913L18.9355 160.372L25.3138 149.657L18.9115 161.928L18.757 171.846Z" fill="#F2F2F2"/>
<g opacity="0.7">
<path opacity="0.7" d="M208.537 74.6065V71.7525H194.916V84.9525C194.916 85.6905 195.195 86.3983 195.694 86.9201C196.192 87.442 196.867 87.7352 197.572 87.7352H205.881C206.585 87.7352 207.261 87.442 207.759 86.9201C208.257 86.3983 208.537 85.6905 208.537 84.9525V82.0271C209.476 82.0271 210.377 81.6362 211.041 80.9404C211.706 80.2446 212.079 79.3008 212.079 78.3168C212.079 77.3328 211.706 76.3891 211.041 75.6933C210.377 74.9975 209.476 74.6065 208.537 74.6065ZM208.537 80.6V76.0336C209.115 76.0336 209.669 76.2741 210.078 76.7023C210.487 77.1305 210.717 77.7113 210.717 78.3168C210.717 78.9224 210.487 79.5031 210.078 79.9313C209.669 80.3595 209.115 80.6 208.537 80.6Z" fill="url(#paint0_linear)"/>
</g>
<path d="M208.099 75.0533C207.459 75.0533 206.834 75.252 206.302 75.6242C205.771 75.9964 205.356 76.5255 205.111 77.1445C204.867 77.7635 204.803 78.4447 204.927 79.1018C205.052 79.7589 205.36 80.3626 205.812 80.8363C206.265 81.3101 206.841 81.6327 207.468 81.7635C208.095 81.8942 208.745 81.8271 209.336 81.5707C209.927 81.3143 210.432 80.8801 210.787 80.323C211.143 79.7659 211.332 79.1109 211.332 78.4409C211.332 77.5425 210.992 76.6808 210.385 76.0455C209.779 75.4102 208.956 75.0533 208.099 75.0533ZM208.099 80.5256C207.705 80.5256 207.321 80.4034 206.993 80.1743C206.666 79.9452 206.411 79.6196 206.26 79.2387C206.11 78.8578 206.07 78.4386 206.147 78.0342C206.224 77.6298 206.413 77.2584 206.692 76.9668C206.97 76.6753 207.325 76.4767 207.711 76.3963C208.097 76.3158 208.497 76.3571 208.86 76.5149C209.224 76.6727 209.535 76.9399 209.753 77.2827C209.972 77.6256 210.089 78.0286 210.089 78.4409C210.089 78.9938 209.879 79.5241 209.506 79.915C209.133 80.306 208.627 80.5256 208.099 80.5256Z" fill="#6C63FF"/>
<path opacity="0.1" d="M208.099 75.0533C207.459 75.0533 206.834 75.252 206.302 75.6242C205.771 75.9964 205.356 76.5255 205.111 77.1445C204.867 77.7635 204.803 78.4447 204.927 79.1018C205.052 79.7589 205.36 80.3626 205.812 80.8363C206.265 81.3101 206.841 81.6327 207.468 81.7635C208.095 81.8942 208.745 81.8271 209.336 81.5707C209.927 81.3143 210.432 80.8801 210.787 80.323C211.143 79.7659 211.332 79.1109 211.332 78.4409C211.332 77.5425 210.992 76.6808 210.385 76.0455C209.779 75.4102 208.956 75.0533 208.099 75.0533ZM208.099 80.5256C207.705 80.5256 207.321 80.4034 206.993 80.1743C206.666 79.9452 206.411 79.6196 206.26 79.2387C206.11 78.8578 206.07 78.4386 206.147 78.0342C206.224 77.6298 206.413 77.2584 206.692 76.9668C206.97 76.6753 207.325 76.4767 207.711 76.3963C208.097 76.3158 208.497 76.3571 208.86 76.5149C209.224 76.6727 209.535 76.9399 209.753 77.2827C209.972 77.6256 210.089 78.0286 210.089 78.4409C210.089 78.9938 209.879 79.5241 209.506 79.915C209.133 80.306 208.627 80.5256 208.099 80.5256Z" fill="black"/>
<path d="M195.662 72.4474H208.099V84.4862C208.099 85.1636 207.842 85.8132 207.385 86.2922C206.928 86.7712 206.307 87.0403 205.661 87.0403H198.1C197.453 87.0403 196.833 86.7712 196.376 86.2922C195.919 85.8132 195.662 85.1636 195.662 84.4862V72.4474Z" fill="#6C63FF"/>
<path opacity="0.1" d="M205.86 72.4474V84.4996C205.86 85.1734 205.605 85.8197 205.15 86.2961C204.695 86.7726 204.078 87.0403 203.435 87.0403H204.679C205.322 87.0403 205.939 86.7726 206.394 86.2961C206.848 85.8197 207.104 85.1734 207.104 84.4996V72.4474H205.86Z" fill="black"/>
<path d="M198.116 62.7336C198.01 62.7371 197.905 62.7651 197.81 62.8156C197.716 62.8661 197.632 62.9378 197.567 63.0257C197.404 63.3356 197.699 63.6849 197.969 63.8978C198.468 64.2911 198.993 64.6774 199.332 65.2264C199.67 65.7754 199.777 66.5415 199.407 67.0676C198.923 67.7546 197.769 67.9024 197.658 68.7479C197.586 69.2907 198.034 69.7539 198.488 70.0262C199.608 70.6985 201.052 70.8779 201.864 71.9299C202.199 71.2067 202.95 70.7887 203.699 70.6102C204.447 70.4317 205.225 70.445 205.983 70.3239C206.107 70.3215 206.229 70.2885 206.339 70.2276C206.448 70.1668 206.542 70.0797 206.614 69.9736C206.826 69.5226 206.221 68.9818 206.43 68.529C206.589 68.1844 207.055 68.2112 207.396 68.0732C207.951 67.8485 208.18 67.1006 208.022 66.4997C207.865 65.8989 207.42 65.4293 206.952 65.0444C205.692 64.0069 204.177 63.3967 202.644 62.9578C201.931 62.7537 201.094 62.4336 200.354 62.4027C199.639 62.3728 198.824 62.6068 198.116 62.7336Z" fill="#EEEEEE"/>
<path d="M110.824 90.1173L84.819 174.991" stroke="#E0E0E0" stroke-width="8" stroke-miterlimit="10"/>
<g opacity="0.7">
<path opacity="0.7" d="M130.973 184.55C127.774 184.745 124.924 187.552 124.924 187.552L123.546 183.971L123.434 184.009C124.107 180.922 137.803 117.284 124.092 111.798C113.557 107.582 102.382 102.365 93.6269 102.561V87.5274H105.902V86.9916H115.619C117.482 85.5977 114.775 84.6392 111.75 84.0401C111.873 83.8923 111.982 83.7318 112.074 83.5609L127.638 54.308C127.638 54.308 131.218 48.1464 128.916 45.1995C126.615 42.2526 123.291 52.7006 123.291 52.7006L110.504 71.9893C110.504 71.9893 97.5998 57.8986 89.3905 50.8911C88.4795 49.9453 87.4517 49.1315 86.3346 48.4714C84.836 47.4093 83.7017 46.859 83.1424 47.0748C83.1366 47.077 83.1321 47.0806 83.1264 47.083C81.8823 46.7222 80.5974 46.5392 79.3065 46.539H78.2837V44.3409C80.575 43.5481 82.6712 42.2355 84.4228 40.4967C86.1744 38.7579 87.5383 36.6357 88.4173 34.2814C89.8599 31.7784 90.7409 28.9647 90.9939 26.0529C91.2468 23.141 90.8651 20.2069 89.8775 17.4722C90.0302 17.4533 90.1771 17.4 90.3082 17.316C90.7713 17.0037 90.8171 16.3204 90.7724 15.7453C90.6045 13.8151 89.9902 11.9568 88.9828 10.3311C87.9754 8.70535 86.6052 7.36116 84.9906 6.41473C83.695 5.67251 82.2111 5.16113 81.2557 3.98154C80.4348 2.96794 80.0898 1.55032 79.0964 0.723296C77.9162 -0.259218 76.2113 -0.0903108 74.7631 0.3481C73.1516 0.836597 71.6247 1.59141 70.2403 2.58405C68.6738 3.70803 67.26 5.15204 65.4566 5.77417C64.1752 6.21623 62.7855 6.20741 61.4959 6.6227C60.5063 6.95122 59.6038 7.51782 58.8606 8.27718C58.1174 9.03654 57.5542 9.96758 57.2159 10.9958C56.8877 12.1005 56.7634 13.2605 56.8498 14.4139C56.0656 15.7872 55.4485 17.2579 55.0129 18.7917C54.9164 18.8463 54.8194 18.8997 54.7238 18.956L55.0042 18.8239C54.0261 22.2826 53.9936 25.9594 54.9104 29.4365C55.8273 32.9136 57.6566 36.0516 60.1907 38.494C62.1932 41.225 64.9331 43.2621 68.0548 44.3409V47.0001C65.8277 47.5033 63.703 48.415 61.7787 49.6929L61.7759 49.6894C61.7759 49.6894 61.6127 49.7952 61.3333 49.992C61.3053 50.0117 61.2773 50.0315 61.2495 50.0514C59.3572 51.3968 53.0164 56.313 53.2306 61.6253C53.2222 61.8295 53.2233 62.0344 53.2339 62.24C52.8877 63.7751 52.7124 65.3472 52.7116 66.9246V105.477C52.7067 109.736 54.0732 113.874 56.5902 117.219C51.2538 118.472 47.8529 120.367 47.8529 122.488C47.8797 122.666 47.8797 122.846 47.8529 123.024C47.8529 126.797 58.615 129.855 71.8907 129.855C73.4958 129.855 75.0637 129.81 76.5807 129.725L91.5812 142.447L67.5434 182.899C67.5434 182.899 59.616 189.329 65.7533 191.472C71.8906 193.615 84.421 195.223 84.421 195.223C84.421 195.223 86.4667 191.472 83.6538 189.865C80.8409 188.257 77.0051 189.061 77.0051 189.061L77.5165 185.846C77.5165 185.846 119.199 148.34 110.504 135.481C108.841 133.021 107.178 130.483 105.5 127.984L112.062 128.61L113.555 187.487L113.742 187.423C113.367 188.58 110.716 197.309 116.592 195.832C122.883 194.251 134.329 188.672 134.329 188.672C134.329 188.672 134.172 184.356 130.973 184.55ZM105.902 83.2411L93.6269 79.5078V68.5066L106.968 83.3431C106.312 83.2742 105.902 83.2411 105.902 83.2411Z" fill="url(#paint1_linear)"/>
</g>
<path d="M73.0666 44.7988C83.0097 44.7988 91.0702 36.3545 91.0702 25.9379C91.0702 15.5214 83.0097 7.07706 73.0666 7.07706C63.1236 7.07706 55.0631 15.5214 55.0631 25.9379C55.0631 36.3545 63.1236 44.7988 73.0666 44.7988Z" fill="black"/>
<path d="M93.5707 69.1608L107.31 84.4403C107.6 84.7621 107.957 85.0078 108.354 85.1577C108.751 85.3075 109.176 85.3572 109.595 85.3028C110.014 85.2483 110.414 85.0912 110.764 84.8442C111.114 84.5972 111.403 84.2673 111.609 83.8812L126.827 55.2771L122.576 53.7054L110.074 72.5662C110.074 72.5662 86.6025 46.9372 83.3187 48.2043C80.0349 49.4713 93.5707 69.1608 93.5707 69.1608Z" fill="#6C63FF"/>
<path d="M67.3155 122.076L47.0615 177.087" stroke="#BDBDBD" stroke-width="5" stroke-miterlimit="10"/>
<path d="M77.3175 122.076L97.5715 177.087" stroke="#BDBDBD" stroke-width="5" stroke-miterlimit="10"/>
<path d="M72.3165 129.149C85.2978 129.149 95.8211 126.158 95.8211 122.469C95.8211 118.78 85.2978 115.789 72.3165 115.789C59.3353 115.789 48.8119 118.78 48.8119 122.469C48.8119 126.158 59.3353 129.149 72.3165 129.149Z" fill="#B84733"/>
<path d="M72.3165 128.625C85.2978 128.625 95.8211 125.634 95.8211 121.945C95.8211 118.256 85.2978 115.265 72.3165 115.265C59.3353 115.265 48.8119 118.256 48.8119 121.945C48.8119 125.634 59.3353 128.625 72.3165 128.625Z" fill="#F55F44"/>
<path d="M62.4261 134.162L84.603 141.321" stroke="#BDBDBD" stroke-width="5" stroke-miterlimit="10"/>
<path d="M82.2069 134.162L60.03 141.321" stroke="#BDBDBD" stroke-width="5" stroke-miterlimit="10"/>
<path d="M72.5902 47.6803H79.5679C83.2817 47.6803 86.8433 49.2259 89.4694 51.9769C92.0954 54.728 93.5707 58.4593 93.5707 62.3499V101.119H53.5628V67.6138C53.5628 62.3271 55.5675 57.257 59.1358 53.5187C62.7041 49.7805 67.5438 47.6803 72.5902 47.6803Z" fill="#6C63FF"/>
<path d="M53.5628 101.12H93.5707V123.91H71.3163C66.6078 123.91 62.0921 121.95 58.7627 118.462C55.4333 114.974 53.5628 110.244 53.5628 105.311V101.12Z" fill="#39447A"/>
<path opacity="0.05" d="M54.1031 63.408L78.5677 87.7597H105.573V84.0923L82.3184 77.0195L62.426 51.2848C62.426 51.2848 53.3932 57.1314 54.1031 63.408Z" fill="black"/>
<path d="M54.1031 62.8841L78.5677 87.2358H105.573V83.5684L82.3184 76.4956L62.426 50.7609C62.426 50.7609 53.3932 56.6074 54.1031 62.8841Z" fill="#6C63FF"/>
<path d="M105.573 83.5684C105.573 83.5684 118.576 84.6163 115.075 87.2358H105.573V83.5684Z" fill="#FDA57D"/>
<path d="M122.576 53.7053C122.576 53.7053 125.827 43.489 128.077 46.3705C130.328 49.2521 126.827 55.2771 126.827 55.2771L122.576 53.7053Z" fill="#FDA57D"/>
<path opacity="0.05" d="M53.5628 101.119V102.342L93.5707 102.429V101.119H53.5628Z" fill="black"/>
<path d="M84.6845 125.362L111.597 127.931L113.057 185.502L122.691 182.216C122.691 182.216 137.101 116.99 123.361 111.491C109.62 105.993 94.7679 98.7536 85.9001 104.654C77.0324 110.554 84.6845 125.362 84.6845 125.362Z" fill="#39447A"/>
<path opacity="0.1" d="M86.3193 107.668C86.3193 107.668 101.072 115.527 103.073 124.434L86.3193 107.668Z" fill="black"/>
<path d="M70.5664 123.648L91.5703 141.461L68.0657 181.016L77.8176 183.898C77.8176 183.898 118.576 147.224 110.074 134.65C101.572 122.076 93.0706 107.406 82.5685 107.145C72.0665 106.883 70.5664 123.648 70.5664 123.648Z" fill="#39447A"/>
<path opacity="0.05" d="M103.573 65.7553L108.824 75.1857L110.074 72.5662L103.573 65.7553Z" fill="black"/>
<path d="M68.0656 181.016C68.0656 181.016 60.3141 187.303 66.3153 189.399C72.3165 191.495 84.5689 193.066 84.5689 193.066C84.5689 193.066 86.5693 189.399 83.8187 187.827C81.0682 186.255 77.3175 187.041 77.3175 187.041L77.8176 183.898L68.0656 181.016Z" fill="#333333"/>
<path d="M113.28 185.316C113.28 185.316 109.875 195.209 116.026 193.662C122.178 192.116 133.37 186.661 133.37 186.661C133.37 186.661 133.216 182.441 130.088 182.631C126.96 182.821 124.174 185.566 124.174 185.566L122.826 182.064L113.28 185.316Z" fill="#333333"/>
<path d="M73.5667 38.5118H73.5667C70.8047 38.5118 68.5657 40.8575 68.5657 43.751V48.9901C68.5657 51.8836 70.8047 54.2293 73.5667 54.2293H73.5667C76.3287 54.2293 78.5677 51.8836 78.5677 48.9901V43.751C78.5677 40.8575 76.3287 38.5118 73.5667 38.5118Z" fill="#FDA57D"/>
<path opacity="0.05" d="M73.5667 39.0358C72.2404 39.0358 70.9684 39.5877 70.0305 40.5703C69.0926 41.5528 68.5657 42.8854 68.5657 44.2749V46.0549C71.8141 47.1743 75.3193 47.1743 78.5677 46.0549V44.2749C78.5677 42.8854 78.0408 41.5528 77.1029 40.5703C76.1651 39.5877 74.8931 39.0358 73.5667 39.0358Z" fill="black"/>
<path d="M73.5667 46.3705C82.405 46.3705 89.5699 38.8645 89.5699 29.6053C89.5699 20.3461 82.405 12.8401 73.5667 12.8401C64.7285 12.8401 57.5636 20.3461 57.5636 29.6053C57.5636 38.8645 64.7285 46.3705 73.5667 46.3705Z" fill="#FDA57D"/>
<path opacity="0.05" d="M57.5636 28.8446C57.5636 28.8446 61.5644 29.9247 63.8148 25.1611C66.0653 20.3974 67.8156 17.7991 77.0675 20.6139C86.3193 23.4288 88.1805 23.7723 88.6252 21.1105C88.929 19.2916 85.6392 14.8735 83.5252 12.2578C82.4939 10.9817 80.811 10.2206 79.0124 10.2206H68.5658L62.3146 13.252L57.5636 17.5825L56.5634 23.4288L57.5636 28.8446Z" fill="black"/>
<path d="M57.5636 28.3207C57.5636 28.3207 61.5644 29.4008 63.8148 24.6371C66.0653 19.8735 67.8156 17.2751 77.0675 20.09C86.3193 22.9049 88.1805 23.2483 88.6252 20.5865C88.929 18.7676 85.6392 14.3496 83.5252 11.7339C82.4939 10.4578 80.811 9.69662 79.0124 9.69662H68.5658L62.3146 12.728L57.5636 17.0586L56.5634 22.9049L57.5636 28.3207Z" fill="black"/>
<path d="M59.1889 31.701C60.0866 31.701 60.8143 30.1763 60.8143 28.2955C60.8143 26.4148 60.0866 24.8901 59.1889 24.8901C58.2913 24.8901 57.5636 26.4148 57.5636 28.2955C57.5636 30.1763 58.2913 31.701 59.1889 31.701Z" fill="#FDA57D"/>
<path d="M58.0273 19.5329C57.6564 17.34 57.292 15.0372 57.9673 12.9255C58.298 11.9201 58.8487 11.0097 59.5754 10.2671C60.3021 9.52463 61.1846 8.97059 62.1523 8.64936C63.4133 8.24327 64.7722 8.2519 66.0251 7.81965C67.7886 7.2113 69.1709 5.79933 70.7027 4.70027C72.0565 3.72963 73.5494 2.99157 75.1253 2.51391C76.5413 2.08521 78.2084 1.92005 79.3624 2.88079C80.3338 3.68946 80.6711 5.07564 81.4739 6.06676C82.4081 7.22019 83.859 7.72023 85.1259 8.44599C86.7047 9.37143 88.0445 10.6858 89.0296 12.2754C90.0146 13.8651 90.6152 15.6822 90.7795 17.5696C90.8232 18.132 90.7784 18.8001 90.3255 19.1055C90.0442 19.2554 89.7273 19.316 89.4136 19.2799C83.0176 19.1841 76.614 19.0879 70.2445 18.4728C68.2644 18.2816 66.2803 18.04 64.2933 18.1189C61.2179 18.2445 58.2148 19.1322 55.5304 20.7091" fill="black"/>
<path d="M30.3313 169.032H8.19764C3.67021 169.032 0 172.877 0 177.62V177.62C0 182.363 3.67021 186.208 8.19764 186.208H30.3313C34.8587 186.208 38.529 182.363 38.529 177.62C38.529 172.877 34.8587 169.032 30.3313 169.032Z" fill="#6C63FF"/>
<path d="M143.997 107.712C144.095 107.709 144.187 107.666 144.254 107.592C144.322 107.519 144.36 107.421 144.36 107.319C144.36 107.217 144.322 107.119 144.254 107.046C144.187 106.973 144.095 106.93 143.997 106.926C143.9 106.93 143.808 106.973 143.74 107.046C143.673 107.119 143.635 107.217 143.635 107.319C143.635 107.421 143.673 107.519 143.74 107.592C143.808 107.666 143.9 107.709 143.997 107.712Z" fill="url(#paint2_linear)"/>
<path d="M199.032 90.1173L225.037 187.065" stroke="#E0E0E0" stroke-width="8" stroke-miterlimit="10"/>
<path d="M225.143 87.2783H84.7134V93.0112H225.143V87.2783Z" fill="#E0E0E0"/>
<path d="M140.705 85.926H120.951C120.053 85.926 119.326 86.6883 119.326 87.6287V87.6287C119.326 88.5691 120.053 89.3315 120.951 89.3315H140.705C141.603 89.3315 142.33 88.5691 142.33 87.6287C142.33 86.6883 141.603 85.926 140.705 85.926Z" fill="#535461"/>
<g opacity="0.7">
<path opacity="0.7" d="M183.448 47.9583H140.385C136.488 47.9583 133.328 51.2679 133.328 55.3506V81.9816C133.328 86.0643 136.488 89.3739 140.385 89.3739H183.448C187.345 89.3739 190.505 86.0643 190.505 81.9816V55.3506C190.505 51.2679 187.345 47.9583 183.448 47.9583Z" fill="url(#paint3_linear)"/>
</g>
<path d="M181.801 48.7224H141.058C137.352 48.7224 134.348 51.8697 134.348 55.752V82.3443C134.348 86.2267 137.352 89.3739 141.058 89.3739H181.801C185.507 89.3739 188.511 86.2267 188.511 82.3443V55.752C188.511 51.8697 185.507 48.7224 181.801 48.7224Z" fill="#3E3F49"/>
<path d="M182.551 48.7224H141.808C138.102 48.7224 135.098 51.8697 135.098 55.752V82.3443C135.098 86.2267 138.102 89.3739 141.808 89.3739H182.551C186.257 89.3739 189.261 86.2267 189.261 82.3443V55.752C189.261 51.8697 186.257 48.7224 182.551 48.7224Z" fill="#535461"/>
<path d="M164.71 70.6015C165.676 70.6015 166.46 69.7806 166.46 68.7678C166.46 67.7551 165.676 66.9341 164.71 66.9341C163.743 66.9341 162.959 67.7551 162.959 68.7678C162.959 69.7806 163.743 70.6015 164.71 70.6015Z" fill="#E0E0E0"/>
<ellipse cx="155.5" cy="14.5" rx="39.5" ry="14.5" fill="#C4C4C4"/>
<path d="M138.373 9.205H140.428V13.03H143.998V9.205H146.053V19H143.998V14.83H140.428V19H138.373V9.205ZM150.102 19.18C149.442 19.18 148.907 18.97 148.497 18.55C148.097 18.13 147.897 17.6 147.897 16.96C147.897 16.17 148.232 15.56 148.902 15.13C149.572 14.69 150.647 14.39 152.127 14.23C152.097 13.43 151.687 13.03 150.897 13.03C150.587 13.03 150.272 13.09 149.952 13.21C149.632 13.33 149.282 13.5 148.902 13.72L148.167 12.37C149.217 11.72 150.257 11.395 151.287 11.395C152.237 11.395 152.957 11.675 153.447 12.235C153.937 12.785 154.182 13.61 154.182 14.71V19H152.502L152.352 18.22H152.307C151.567 18.86 150.832 19.18 150.102 19.18ZM150.777 17.59C151.027 17.59 151.252 17.535 151.452 17.425C151.662 17.305 151.887 17.13 152.127 16.9V15.475C151.317 15.585 150.737 15.75 150.387 15.97C150.037 16.19 149.862 16.465 149.862 16.795C149.862 17.055 149.942 17.255 150.102 17.395C150.262 17.525 150.487 17.59 150.777 17.59ZM158.028 19.18C157.358 19.18 156.873 18.975 156.573 18.565C156.273 18.155 156.123 17.575 156.123 16.825V8.455H158.163V16.915C158.163 17.125 158.203 17.28 158.283 17.38C158.363 17.47 158.453 17.515 158.553 17.515C158.653 17.515 158.743 17.505 158.823 17.485L159.078 19.015C158.788 19.125 158.438 19.18 158.028 19.18ZM162.247 19.18C161.577 19.18 161.092 18.975 160.792 18.565C160.492 18.155 160.342 17.575 160.342 16.825V8.455H162.382V16.915C162.382 17.125 162.422 17.28 162.502 17.38C162.582 17.47 162.672 17.515 162.772 17.515C162.872 17.515 162.962 17.505 163.042 17.485L163.297 19.015C163.007 19.125 162.657 19.18 162.247 19.18ZM167.696 19.18C167.056 19.18 166.461 19.025 165.911 18.715C165.371 18.405 164.936 17.955 164.606 17.365C164.276 16.775 164.111 16.085 164.111 15.295C164.111 14.495 164.276 13.8 164.606 13.21C164.936 12.62 165.371 12.17 165.911 11.86C166.461 11.55 167.056 11.395 167.696 11.395C168.326 11.395 168.916 11.55 169.466 11.86C170.016 12.17 170.456 12.625 170.786 13.225C171.116 13.815 171.281 14.505 171.281 15.295C171.281 16.085 171.116 16.775 170.786 17.365C170.456 17.955 170.016 18.405 169.466 18.715C168.916 19.025 168.326 19.18 167.696 19.18ZM167.696 17.515C168.166 17.515 168.531 17.32 168.791 16.93C169.051 16.53 169.181 15.985 169.181 15.295C169.181 14.605 169.051 14.06 168.791 13.66C168.531 13.26 168.166 13.06 167.696 13.06C167.216 13.06 166.846 13.26 166.586 13.66C166.336 14.06 166.211 14.605 166.211 15.295C166.211 15.985 166.336 16.53 166.586 16.93C166.846 17.32 167.216 17.515 167.696 17.515ZM173.362 10.84L173.302 8.95H175.357L175.282 10.84L174.997 15.61H173.647L173.362 10.84ZM174.322 19.18C173.962 19.18 173.662 19.055 173.422 18.805C173.182 18.555 173.062 18.24 173.062 17.86C173.062 17.48 173.182 17.165 173.422 16.915C173.662 16.665 173.962 16.54 174.322 16.54C174.682 16.54 174.982 16.665 175.222 16.915C175.462 17.165 175.582 17.48 175.582 17.86C175.582 18.24 175.462 18.555 175.222 18.805C174.982 19.055 174.682 19.18 174.322 19.18Z" fill="#6C63FF"/>
</g>
<defs>
<linearGradient id="paint0_linear" x1="203.497" y1="87.7352" x2="203.497" y2="71.7525" gradientUnits="userSpaceOnUse">
<stop stop-color="#808080" stop-opacity="0.25"/>
<stop offset="0.53514" stop-color="#808080" stop-opacity="0.12"/>
<stop offset="1" stop-color="#808080" stop-opacity="0.1"/>
</linearGradient>
<linearGradient id="paint1_linear" x1="44504.6" y1="161525" x2="44504.6" y2="14874.9" gradientUnits="userSpaceOnUse">
<stop stop-color="#808080" stop-opacity="0.25"/>
<stop offset="0.53514" stop-color="#808080" stop-opacity="0.12"/>
<stop offset="1" stop-color="#808080" stop-opacity="0.1"/>
</linearGradient>
<linearGradient id="paint2_linear" x1="669.469" y1="489.706" x2="669.469" y2="487.348" gradientUnits="userSpaceOnUse">
<stop stop-color="#808080" stop-opacity="0.25"/>
<stop offset="0.53514" stop-color="#808080" stop-opacity="0.12"/>
<stop offset="1" stop-color="#808080" stop-opacity="0.1"/>
</linearGradient>
<linearGradient id="paint3_linear" x1="37157.1" y1="14178.1" x2="37157.1" y2="7630.22" gradientUnits="userSpaceOnUse">
<stop stop-color="#808080" stop-opacity="0.25"/>
<stop offset="0.53514" stop-color="#808080" stop-opacity="0.12"/>
<stop offset="1" stop-color="#808080" stop-opacity="0.1"/>
</linearGradient>
<clipPath id="clip0">
<rect width="226" height="196" fill="white"/>
</clipPath>
</defs>
</svg>
