<svg width="178" height="200" viewBox="0 0 158 160" fill="none" xmlns="http://www.w3.org/2000/svg">
<g clip-path="url(#clip0)">
<path d="M79.0001 146.465C114.896 146.465 143.995 118.344 143.995 83.6554C143.995 48.9665 114.896 20.8456 79.0001 20.8456C43.1046 20.8456 14.0056 48.9665 14.0056 83.6554C14.0056 118.344 43.1046 146.465 79.0001 146.465Z" stroke="#3AD29F" stroke-width="2" stroke-miterlimit="10" stroke-dasharray="12 12"/>
<path d="M78.9999 159.789C122.51 159.789 157.781 125.703 157.781 83.6554C157.781 41.6083 122.51 7.52237 78.9999 7.52237C35.4903 7.52237 0.21875 41.6083 0.21875 83.6554C0.21875 125.703 35.4903 159.789 78.9999 159.789Z" stroke="#3AD29F" stroke-width="2" stroke-miterlimit="10" stroke-dasharray="12 12"/>
<path d="M131.727 107.91C131.728 103.633 130.077 99.5092 127.098 96.3459C124.119 93.1826 120.025 91.2075 115.619 90.8071C111.212 90.4066 106.809 91.6096 103.272 94.1807C99.7351 96.7518 97.318 100.506 96.4939 104.708L41.8745 103.277L42.4741 112.345C42.4741 112.345 34.6857 129.712 75.6191 134.339V151.892H122.94V122.707C125.613 121.195 127.829 119.034 129.371 116.438C130.912 113.843 131.724 110.903 131.727 107.91Z" fill="url(#paint0_linear)"/>
<path d="M44.3492 112.726C44.3492 112.726 36.8912 129.356 76.0914 133.793V150.61H121.41V106.075L43.7671 104.04L44.3492 112.726Z" fill="#BE7C5E"/>
<path d="M66.9991 43.324C65.8174 45.126 63.9458 46.4028 61.7931 46.8755C59.6404 47.3482 57.3816 46.9785 55.5102 45.8469L31.1777 30.3517C29.3131 29.2098 27.9918 27.4011 27.5027 25.3208C27.0135 23.2404 27.3961 21.0576 28.567 19.249C29.7486 17.4493 31.6186 16.1742 33.7692 15.7015C35.9197 15.2289 38.1764 15.5972 40.0472 16.726L64.3796 32.2212C66.2457 33.3618 67.5688 35.1699 68.0596 37.2503C68.5504 39.3308 68.1692 41.5144 66.9991 43.324Z" fill="url(#paint1_linear)"/>
<path d="M65.6508 42.478C64.5524 44.153 62.8127 45.3398 60.8117 45.7793C58.8108 46.2187 56.7112 45.8751 54.9716 44.8233L32.346 30.4088C30.6128 29.3473 29.3847 27.6661 28.9299 25.7324C28.4752 23.7987 28.8308 21.7697 29.9191 20.0886C31.0175 18.4136 32.7572 17.2267 34.7582 16.7873C36.7592 16.3478 38.8588 16.6915 40.5984 17.7432L63.2195 32.1493C64.9559 33.2102 66.1866 34.8927 66.6423 36.8285C67.098 38.7643 66.7414 40.7957 65.6508 42.478Z" fill="#BE7C5E"/>
<path d="M112.808 124.924C122.207 124.924 129.827 117.56 129.827 108.477C129.827 99.3936 122.207 92.0301 112.808 92.0301C103.409 92.0301 95.7891 99.3936 95.7891 108.477C95.7891 117.56 103.409 124.924 112.808 124.924Z" fill="#BE7C5E"/>
<path d="M109.744 0H44.5484C43.0679 0 41.8677 1.15987 41.8677 2.59064V120.483C41.8677 121.913 43.0679 123.073 44.5484 123.073H109.744C111.225 123.073 112.425 121.913 112.425 120.483V2.59064C112.425 1.15987 111.225 0 109.744 0Z" fill="url(#paint2_linear)"/>
<path d="M108.484 1.66437H45.8048C44.1562 1.66437 42.8198 2.95585 42.8198 4.54896V118.529C42.8198 120.122 44.1562 121.413 45.8048 121.413H108.484C110.132 121.413 111.469 120.122 111.469 118.529V4.54896C111.469 2.95585 110.132 1.66437 108.484 1.66437Z" fill="white"/>
<path d="M94.3908 4.66739C94.1922 5.93733 93.5298 7.09665 92.5236 7.93566C91.5173 8.77467 90.2336 9.23796 88.9045 9.24172H65.1958C63.8671 9.23745 62.5839 8.77394 61.5781 7.93498C60.5723 7.09601 59.9103 5.93697 59.7117 4.66739H47.1505C46.8081 4.66711 46.4689 4.73206 46.1524 4.85851C45.836 4.98496 45.5484 5.17045 45.3061 5.40436C45.0639 5.63828 44.8717 5.91603 44.7406 6.22176C44.6095 6.52748 44.542 6.85518 44.542 7.18613V115.887C44.5417 116.218 44.6089 116.546 44.7398 116.852C44.8706 117.158 45.0625 117.436 45.3046 117.67C45.5466 117.904 45.8341 118.089 46.1504 118.216C46.4668 118.343 46.8059 118.408 47.1483 118.408H107.14C107.483 118.408 107.822 118.343 108.138 118.217C108.455 118.091 108.742 117.905 108.985 117.671C109.227 117.437 109.419 117.159 109.55 116.854C109.681 116.548 109.749 116.22 109.749 115.889V7.18824C109.749 6.8573 109.682 6.52954 109.551 6.22371C109.42 5.91788 109.228 5.63997 108.986 5.40586C108.744 5.17175 108.457 4.98603 108.14 4.85932C107.824 4.73261 107.485 4.66739 107.142 4.66739H94.3908Z" fill="#6C63FF"/>
<path d="M84.4535 6.09909H70.03C69.7882 6.09909 69.5923 6.28846 69.5923 6.52205V6.6003C69.5923 6.83389 69.7882 7.02326 70.03 7.02326H84.4535C84.6952 7.02326 84.8912 6.83389 84.8912 6.6003V6.52205C84.8912 6.28846 84.6952 6.09909 84.4535 6.09909Z" fill="#DBDBDB"/>
<path d="M88.1407 7.02329C88.4574 7.02329 88.7141 6.77522 88.7141 6.46921C88.7141 6.1632 88.4574 5.91513 88.1407 5.91513C87.8241 5.91513 87.5674 6.1632 87.5674 6.46921C87.5674 6.77522 87.8241 7.02329 88.1407 7.02329Z" fill="#DBDBDB"/>
<path d="M123.809 111.378C118.87 112.482 115.48 109.369 114.338 104.598L102.989 63.8735C102.446 61.5728 102.868 59.1581 104.162 57.1567C105.455 55.1553 107.516 53.7299 109.893 53.1916C112.274 52.6674 114.773 53.0749 116.844 54.325C118.915 55.5751 120.39 57.5663 120.947 59.8639L130.208 101.64C131.35 106.413 128.746 110.275 123.809 111.378Z" fill="url(#paint3_linear)"/>
<path d="M119.673 60.8608C118.71 56.8334 114.551 54.3229 110.384 55.2534C106.216 56.184 103.618 60.2031 104.581 64.2305L115.017 107.879C115.98 111.906 120.139 114.416 124.306 113.486C128.474 112.555 131.072 108.536 130.109 104.509L119.673 60.8608Z" fill="#BE7C5E"/>
<path d="M129.755 145.108H64.979V159.7H129.755V145.108Z" fill="url(#paint4_linear)"/>
<path d="M128.004 146.799H66.73V158.219H128.004V146.799Z" fill="#4D8AF0"/>
<path d="M57.5539 87.0117C56.3866 88.7922 54.5375 90.0539 52.4106 90.5211C50.2837 90.9883 48.0519 90.623 46.2029 89.505L29.8842 79.3011C28.0417 78.173 26.7361 76.386 26.2527 74.3306C25.7693 72.2752 26.1473 70.1185 27.3041 68.3316C28.4715 66.551 30.3206 65.2893 32.4475 64.8221C34.5744 64.3549 36.8061 64.7202 38.6552 65.8382L54.9738 76.0421C56.8163 77.1702 58.1219 78.9572 58.6054 81.0126C59.0888 83.068 58.7108 85.2247 57.5539 87.0117Z" fill="url(#paint5_linear)"/>
<path d="M53.4572 108.61C52.2795 110.407 50.4137 111.68 48.2675 112.152C46.1213 112.624 43.8692 112.255 42.0033 111.127L31.8952 104.004C30.0358 102.866 28.7182 101.063 28.2302 98.9888C27.7423 96.9148 28.1237 94.7384 29.2911 92.9352C30.4688 91.1383 32.3346 89.865 34.4808 89.3934C36.627 88.9219 38.8791 89.2905 40.745 90.4186L50.853 97.5434C52.7118 98.6815 54.029 100.484 54.517 102.558C55.0049 104.631 54.6239 106.807 53.4572 108.61Z" fill="url(#paint6_linear)"/>
<g opacity="0.5">
<path opacity="0.5" d="M77.1441 80.5594C88.0142 80.5594 96.8262 72.0436 96.8262 61.5388C96.8262 51.034 88.0142 42.5182 77.1441 42.5182C66.2739 42.5182 57.4619 51.034 57.4619 61.5388C57.4619 72.0436 66.2739 80.5594 77.1441 80.5594Z" fill="url(#paint7_linear)"/>
</g>
<path d="M77.1441 79.4406C87.375 79.4406 95.6687 71.4257 95.6687 61.5388C95.6687 51.6519 87.375 43.6369 77.1441 43.6369C66.9133 43.6369 58.6196 51.6519 58.6196 61.5388C58.6196 71.4257 66.9133 79.4406 77.1441 79.4406Z" fill="#69F0AE"/>
<path d="M69.1042 59.1491L76.0501 65.3032L85.8911 51.3179L89.3663 54.1158L76.0501 70.8989L66.209 60.2699L69.1042 59.1491Z" fill="white"/>
<path d="M52.6412 108.079C51.5428 109.754 49.8031 110.941 47.8022 111.381C45.8012 111.82 43.7016 111.476 41.962 110.425L32.5345 103.793C30.8013 102.731 29.5731 101.05 29.1184 99.1162C28.6637 97.1825 29.0193 95.1535 30.1076 93.4724C31.206 91.7974 32.9457 90.6105 34.9467 90.1711C36.9476 89.7317 39.0472 90.0753 40.7868 91.1271L50.2121 97.7718C51.9421 98.8328 53.1681 100.511 53.6231 102.442C54.0781 104.373 53.7252 106.399 52.6412 108.079Z" fill="#BE7C5E"/>
<path d="M56.6567 86.4512C55.5583 88.1262 53.8186 89.3131 51.8176 89.7525C49.8167 90.1919 47.7171 89.8483 45.9774 88.7965L30.6239 79.1953C28.8906 78.1338 27.6625 76.4526 27.2078 74.5189C26.753 72.5852 27.1087 70.5562 28.197 68.8751C29.2954 67.2001 31.0351 66.0132 33.036 65.5738C35.037 65.1343 37.1366 65.478 38.8762 66.5297L54.2298 76.131C55.963 77.1924 57.1911 78.8737 57.6459 80.8074C58.1006 82.7411 57.745 84.7701 56.6567 86.4512Z" fill="#BE7C5E"/>
<path d="M61.773 65.5146C60.6 67.303 58.7422 68.5702 56.6056 69.0393C54.469 69.5085 52.227 69.1415 50.3695 68.0186L29.6894 55.0062C27.8388 53.8725 26.5276 52.0772 26.0421 50.0124C25.5566 47.9476 25.9364 45.781 27.0984 43.9859C28.2715 42.1975 30.1292 40.9304 32.2658 40.4612C34.4024 39.9921 36.6444 40.359 38.5019 41.482L59.182 54.4944C61.0326 55.628 62.3438 57.4233 62.8293 59.4881C63.3148 61.5529 62.935 63.7195 61.773 65.5146Z" fill="url(#paint8_linear)"/>
<path d="M60.6748 64.8379C59.5764 66.5129 57.8367 67.6997 55.8357 68.1392C53.8348 68.5786 51.7351 68.2349 49.9955 67.1832L30.6263 54.9956C28.8931 53.9341 27.6649 52.2529 27.2102 50.3192C26.7555 48.3855 27.1111 46.3564 28.1994 44.6753C29.2978 43.0003 31.0375 41.8135 33.0385 41.374C35.0394 40.9346 37.139 41.2783 38.8786 42.33L58.2457 54.5176C59.9793 55.5788 61.2079 57.2598 61.663 59.1936C62.1182 61.1273 61.7629 63.1565 60.6748 64.8379Z" fill="#BE7C5E"/>
</g>
<defs>
<linearGradient id="paint0_linear" x1="86.8038" y1="151.902" x2="86.8038" y2="90.7337" gradientUnits="userSpaceOnUse">
<stop stop-color="#808080" stop-opacity="0.25"/>
<stop offset="0.54" stop-color="#808080" stop-opacity="0.12"/>
<stop offset="1" stop-color="#808080" stop-opacity="0.1"/>
</linearGradient>
<linearGradient id="paint1_linear" x1="18766.2" y1="9324.99" x2="18766.2" y2="4609.46" gradientUnits="userSpaceOnUse">
<stop stop-color="#808080" stop-opacity="0.25"/>
<stop offset="0.54" stop-color="#808080" stop-opacity="0.12"/>
<stop offset="1" stop-color="#808080" stop-opacity="0.1"/>
</linearGradient>
<linearGradient id="paint2_linear" x1="41725.6" y1="80496.8" x2="41725.6" y2="8873.08" gradientUnits="userSpaceOnUse">
<stop stop-color="#808080" stop-opacity="0.25"/>
<stop offset="0.54" stop-color="#808080" stop-opacity="0.12"/>
<stop offset="1" stop-color="#808080" stop-opacity="0.1"/>
</linearGradient>
<linearGradient id="paint3_linear" x1="21496.5" y1="35227.4" x2="21496.5" y2="18970.9" gradientUnits="userSpaceOnUse">
<stop stop-color="#808080" stop-opacity="0.25"/>
<stop offset="0.54" stop-color="#808080" stop-opacity="0.12"/>
<stop offset="1" stop-color="#808080" stop-opacity="0.1"/>
</linearGradient>
<linearGradient id="paint4_linear" x1="44315.3" y1="12202.8" x2="44315.3" y2="11195.9" gradientUnits="userSpaceOnUse">
<stop stop-color="#808080" stop-opacity="0.25"/>
<stop offset="0.54" stop-color="#808080" stop-opacity="0.12"/>
<stop offset="1" stop-color="#808080" stop-opacity="0.1"/>
</linearGradient>
<linearGradient id="paint5_linear" x1="14208.3" y1="13143.6" x2="14208.3" y2="9923.39" gradientUnits="userSpaceOnUse">
<stop stop-color="#808080" stop-opacity="0.25"/>
<stop offset="0.54" stop-color="#808080" stop-opacity="0.12"/>
<stop offset="1" stop-color="#808080" stop-opacity="0.1"/>
</linearGradient>
<linearGradient id="paint6_linear" x1="11458.1" y1="14065.3" x2="11458.1" y2="11528.7" gradientUnits="userSpaceOnUse">
<stop stop-color="#808080" stop-opacity="0.25"/>
<stop offset="0.54" stop-color="#808080" stop-opacity="0.12"/>
<stop offset="1" stop-color="#808080" stop-opacity="0.1"/>
</linearGradient>
<linearGradient id="paint7_linear" x1="13934.2" y1="14533.5" x2="13934.2" y2="7690.31" gradientUnits="userSpaceOnUse">
<stop stop-color="#808080" stop-opacity="0.25"/>
<stop offset="0.54" stop-color="#808080" stop-opacity="0.12"/>
<stop offset="1" stop-color="#808080" stop-opacity="0.1"/>
</linearGradient>
<linearGradient id="paint8_linear" x1="16469.9" y1="11620.8" x2="16469.9" y2="7650.1" gradientUnits="userSpaceOnUse">
<stop stop-color="#808080" stop-opacity="0.25"/>
<stop offset="0.54" stop-color="#808080" stop-opacity="0.12"/>
<stop offset="1" stop-color="#808080" stop-opacity="0.1"/>
</linearGradient>
<clipPath id="clip0">
<rect width="158" height="160" fill="white"/>
</clipPath>
</defs>
</svg>
