<svg width="35" height="32" viewBox="0 0 35 32" fill="none" xmlns="http://www.w3.org/2000/svg">
<path d="M17.5 0C27.1673 0 35 7.16129 35 16C35 24.8387 27.1673 32 17.5 32C7.83266 32 0 24.8387 0 16C0 7.16129 7.83266 0 17.5 0ZM25.5373 14.9032L15.9758 6.16129C15.3125 5.55484 14.2399 5.55484 13.5837 6.16129L12.3841 7.25806C11.7208 7.86452 11.7208 8.84516 12.3841 9.44516L19.5534 16L12.3841 22.5548C11.7208 23.1613 11.7208 24.1419 12.3841 24.7419L13.5837 25.8387C14.247 26.4452 15.3196 26.4452 15.9758 25.8387L25.5373 17.0968C26.2006 16.4903 26.2006 15.5097 25.5373 14.9032Z" fill="#4F5695"/>
</svg>
