<svg width="175" height="122" viewBox="0 0 175 122" fill="none" xmlns="http://www.w3.org/2000/svg">
<g clip-path="url(#clip0)">
<path d="M58.7171 117.705L0 122V14.3709L58.7171 10.0759V117.705Z" fill="url(#paint0_linear)"/>
<path d="M58.717 117.705L117.434 122V14.3709L58.717 10.0759V117.705Z" fill="url(#paint1_linear)"/>
<path d="M175 117.705L117.434 122V14.3709L175 10.0759V117.705Z" fill="url(#paint2_linear)"/>
<path d="M58.925 114.717L1.87061 118.844V15.4302L58.925 11.3033V114.717Z" fill="#F5F5F5"/>
<path d="M58.925 114.717L115.979 118.844V15.4302L58.925 11.3033V114.717Z" fill="white"/>
<path d="M173.034 114.717L115.979 118.844V15.4302L173.034 11.3033V114.717Z" fill="#F5F5F5"/>
<path opacity="0.3" d="M58.925 20.8007L15.5886 21.9846V26.597V32.9086V37.521H52.3777V31.9035L58.925 31.7246L68.9017 34.1224V23.1984L58.925 20.8007Z" fill="#536DFE"/>
<path opacity="0.3" d="M58.9251 107.677L10.2886 111.319V97.4817L58.9251 93.8403V107.677Z" fill="#536DFE"/>
<path opacity="0.3" d="M53.6017 64.8461L4.96509 68.4875V54.6504L53.6017 51.009V64.8461Z" fill="#536DFE"/>
<path opacity="0.3" d="M108.809 96.9962H87.6082V109.619H108.809V96.9962Z" fill="#536DFE"/>
<path opacity="0.3" d="M101.908 67.3673H80.7075V79.9907H101.908V67.3673Z" fill="#536DFE"/>
<path opacity="0.3" d="M110.583 27.9134H89.3826V40.5367H110.583V27.9134Z" fill="#536DFE"/>
<path opacity="0.3" d="M164.928 103.793L131.88 105.978V89.228L164.928 87.0432V103.793Z" fill="#536DFE"/>
<path opacity="0.3" d="M160.985 44.8427L127.937 47.0275V30.2774L160.985 28.0926V44.8427Z" fill="#536DFE"/>
<path d="M158.14 13.7226C158.14 19.728 144.658 36.7347 144.658 36.7347C144.658 36.7347 131.175 19.728 131.175 13.7226C131.175 7.71709 137.212 2.84869 144.658 2.84869C152.104 2.84869 158.14 7.71708 158.14 13.7226Z" fill="url(#paint3_linear)"/>
<path d="M144.658 16.2513C146.909 16.2513 148.734 14.7795 148.734 12.9639C148.734 11.1483 146.909 9.67645 144.658 9.67645C142.406 9.67645 140.582 11.1483 140.582 12.9639C140.582 14.7795 142.406 16.2513 144.658 16.2513Z" fill="url(#paint4_linear)"/>
<path d="M157.133 13.7421C157.133 19.107 144.658 34.2999 144.658 34.2999C144.658 34.2999 132.182 19.107 132.182 13.7421C132.182 11.1657 133.496 8.69488 135.836 6.87313C138.175 5.05137 141.349 4.02792 144.658 4.02792C147.966 4.02792 151.14 5.05137 153.479 6.87313C155.819 8.69488 157.133 11.1657 157.133 13.7421Z" fill="#536DFE"/>
<path d="M144.658 16.0011C146.741 16.0011 148.429 14.6863 148.429 13.0643C148.429 11.4423 146.741 10.1275 144.658 10.1275C142.574 10.1275 140.886 11.4423 140.886 13.0643C140.886 14.6863 142.574 16.0011 144.658 16.0011Z" fill="white"/>
<path d="M44.4313 81.7743C44.4313 87.8222 30.5488 104.949 30.5488 104.949C30.5488 104.949 16.6663 87.8222 16.6663 81.7743C16.6663 75.7264 22.8817 70.8235 30.5488 70.8235C38.2159 70.8235 44.4313 75.7264 44.4313 81.7743Z" fill="url(#paint5_linear)"/>
<path d="M30.5488 84.3209C32.8668 84.3209 34.7459 82.8387 34.7459 81.0103C34.7459 79.1818 32.8668 77.6996 30.5488 77.6996C28.2309 77.6996 26.3518 79.1818 26.3518 81.0103C26.3518 82.8387 28.2309 84.3209 30.5488 84.3209Z" fill="url(#paint6_linear)"/>
<path d="M43.0246 81.7137C43.0246 87.0786 30.5487 102.271 30.5487 102.271C30.5487 102.271 18.0728 87.0786 18.0728 81.7137C18.0721 80.4377 18.3943 79.1741 19.021 77.9951C19.6477 76.816 20.5666 75.7447 21.7251 74.8423C22.8837 73.9398 24.2592 73.2239 25.7732 72.7355C27.2872 72.2471 28.9099 71.9957 30.5487 71.9957C32.1875 71.9957 33.8102 72.2471 35.3241 72.7355C36.8381 73.2239 38.2137 73.9398 39.3722 74.8423C40.5308 75.7447 41.4497 76.816 42.0763 77.9951C42.703 79.1741 43.0252 80.4377 43.0246 81.7137H43.0246Z" fill="#536DFE"/>
<path d="M30.5486 83.9728C32.6317 83.9728 34.3204 82.6579 34.3204 81.036C34.3204 79.414 32.6317 78.0991 30.5486 78.0991C28.4655 78.0991 26.7769 79.414 26.7769 81.036C26.7769 82.6579 28.4655 83.9728 30.5486 83.9728Z" fill="white"/>
<path d="M110.652 82.4813C110.652 87.8462 98.1756 103.039 98.1756 103.039C98.1756 103.039 85.6997 87.8462 85.6997 82.4813C85.6991 81.2053 86.0213 79.9417 86.648 78.7626C87.2746 77.5836 88.1935 76.5123 89.3521 75.6098C90.5106 74.7074 91.8862 73.9915 93.4002 73.5031C94.9141 73.0147 96.5368 72.7633 98.1756 72.7633C99.8144 72.7633 101.437 73.0147 102.951 73.5031C104.465 73.9915 105.841 74.7074 106.999 75.6098C108.158 76.5123 109.077 77.5836 109.703 78.7626C110.33 79.9417 110.652 81.2053 110.652 82.4813Z" fill="#536DFE"/>
<path d="M98.1756 84.7404C100.259 84.7404 101.947 83.4255 101.947 81.8035C101.947 80.1816 100.259 78.8667 98.1756 78.8667C96.0925 78.8667 94.4038 80.1816 94.4038 81.8035C94.4038 83.4255 96.0925 84.7404 98.1756 84.7404Z" fill="white"/>
<path d="M159.548 76.3406C159.548 81.7056 147.072 96.8984 147.072 96.8984C147.072 96.8984 134.596 81.7056 134.596 76.3406C134.596 73.7643 135.911 71.2934 138.25 69.4717C140.59 67.6499 143.763 66.6265 147.072 66.6265C150.381 66.6265 153.554 67.6499 155.894 69.4717C158.234 71.2934 159.548 73.7643 159.548 76.3406Z" fill="#536DFE"/>
<path d="M147.072 78.5997C149.155 78.5997 150.844 77.2848 150.844 75.6628C150.844 74.0409 149.155 72.726 147.072 72.726C144.989 72.726 143.3 74.0409 143.3 75.6628C143.3 77.2848 144.989 78.5997 147.072 78.5997Z" fill="white"/>
<path d="M49.3339 9.71424C49.3339 15.0792 36.858 30.272 36.858 30.272C36.858 30.272 24.3821 15.0792 24.3821 9.71424C24.3814 8.43824 24.7037 7.17463 25.3303 5.99562C25.957 4.8166 26.8759 3.74526 28.0344 2.84281C29.193 1.94036 30.5686 1.22448 32.0825 0.73606C33.5965 0.247638 35.2192 -0.00375366 36.858 -0.00375366C38.4968 -0.00375366 40.1195 0.247638 41.6335 0.73606C43.1474 1.22448 44.523 1.94036 45.6816 2.84281C46.8401 3.74526 47.759 4.8166 48.3857 5.99562C49.0123 7.17463 49.3346 8.43824 49.3339 9.71424H49.3339Z" fill="#536DFE"/>
<path d="M36.858 11.9732C38.9411 11.9732 40.6298 10.6584 40.6298 9.03641C40.6298 7.41444 38.9411 6.09958 36.858 6.09958C34.7749 6.09958 33.0862 7.41444 33.0862 9.03641C33.0862 10.6584 34.7749 11.9732 36.858 11.9732Z" fill="white"/>
</g>
<defs>
<linearGradient id="paint0_linear" x1="29.3586" y1="122" x2="29.3586" y2="10.0759" gradientUnits="userSpaceOnUse">
<stop stop-color="#808080" stop-opacity="0.25"/>
<stop offset="0.53514" stop-color="#808080" stop-opacity="0.12"/>
<stop offset="1" stop-color="#808080" stop-opacity="0.1"/>
</linearGradient>
<linearGradient id="paint1_linear" x1="26288.7" y1="88956" x2="26288.7" y2="7356.07" gradientUnits="userSpaceOnUse">
<stop stop-color="#808080" stop-opacity="0.25"/>
<stop offset="0.53514" stop-color="#808080" stop-opacity="0.12"/>
<stop offset="1" stop-color="#808080" stop-opacity="0.1"/>
</linearGradient>
<linearGradient id="paint2_linear" x1="42808.5" y1="88956" x2="42808.5" y2="7356.07" gradientUnits="userSpaceOnUse">
<stop stop-color="#808080" stop-opacity="0.25"/>
<stop offset="0.53514" stop-color="#808080" stop-opacity="0.12"/>
<stop offset="1" stop-color="#808080" stop-opacity="0.1"/>
</linearGradient>
<linearGradient id="paint3_linear" x1="144.658" y1="36.7347" x2="144.658" y2="2.84869" gradientUnits="userSpaceOnUse">
<stop stop-color="#B3B3B3" stop-opacity="0.25"/>
<stop offset="0.53514" stop-color="#B3B3B3" stop-opacity="0.1"/>
<stop offset="1" stop-color="#B3B3B3" stop-opacity="0.05"/>
</linearGradient>
<linearGradient id="paint4_linear" x1="144.658" y1="16.2513" x2="144.658" y2="9.67645" gradientUnits="userSpaceOnUse">
<stop stop-opacity="0.12"/>
<stop offset="0.55135" stop-opacity="0.09"/>
<stop offset="1" stop-opacity="0.02"/>
</linearGradient>
<linearGradient id="paint5_linear" x1="8655.66" y1="25196.8" x2="8655.66" y2="17611" gradientUnits="userSpaceOnUse">
<stop stop-color="#B3B3B3" stop-opacity="0.25"/>
<stop offset="0.53514" stop-color="#B3B3B3" stop-opacity="0.1"/>
<stop offset="1" stop-color="#B3B3B3" stop-opacity="0.05"/>
</linearGradient>
<linearGradient id="paint6_linear" x1="30.5488" y1="84.3209" x2="30.5488" y2="77.6996" gradientUnits="userSpaceOnUse">
<stop offset="0.00541" stop-opacity="0.12"/>
<stop offset="0.55135" stop-opacity="0.09"/>
<stop offset="1" stop-opacity="0.05"/>
</linearGradient>
<clipPath id="clip0">
<rect width="175" height="122" fill="white"/>
</clipPath>
</defs>
</svg>
