<svg width="24" height="24" viewBox="0 0 24 24" fill="none" xmlns="http://www.w3.org/2000/svg">
<g id="search_24px">
<path id="icon/action/search_24px" fill-rule="evenodd" clip-rule="evenodd" d="M14.7106 11.0006H15.5006L19.7406 15.2606C20.1506 15.6706 20.1506 16.3406 19.7406 16.7506C19.3306 17.1606 18.6606 17.1606 18.2506 16.7506L14.0006 12.5006V11.7106L13.7306 11.4306C12.3306 12.6306 10.4206 13.2506 8.39063 12.9106C5.61063 12.4406 3.39063 10.1206 3.05063 7.32063C2.53063 3.09063 6.09063 -0.469374 10.3206 0.0506256C13.1206 0.390626 15.4406 2.61063 15.9106 5.39063C16.2506 7.42063 15.6306 9.33063 14.4306 10.7306L14.7106 11.0006ZM5.00063 6.50063C5.00063 8.99063 7.01063 11.0006 9.50063 11.0006C11.9906 11.0006 14.0006 8.99063 14.0006 6.50063C14.0006 4.01063 11.9906 2.00063 9.50063 2.00063C7.01063 2.00063 5.00063 4.01063 5.00063 6.50063Z" fill="black" fill-opacity="0.54"/>
</g>
</svg>
