<svg width="187" height="119" viewBox="0 0 187 119" fill="none" xmlns="http://www.w3.org/2000/svg">
<g clip-path="url(#clip0)">
<path d="M15.481 25.8176C20.8033 25.8176 25.1178 21.2858 25.1178 15.6956C25.1178 10.1054 20.8033 5.57361 15.481 5.57361C10.1587 5.57361 5.84412 10.1054 5.84412 15.6956C5.84412 21.2858 10.1587 25.8176 15.481 25.8176Z" fill="#FF6584"/>
<path d="M93.0174 119C144.389 119 186.035 117.227 186.035 115.039C186.035 112.852 144.389 111.078 93.0174 111.078C41.6453 111.078 0 112.852 0 115.039C0 117.227 41.6453 119 93.0174 119Z" fill="#E6E6E6"/>
<path d="M23.6732 65.4012C36.7475 65.4012 47.3463 54.2688 47.3463 40.5363C47.3463 26.8038 36.7475 15.6714 23.6732 15.6714C10.5988 15.6714 0 26.8038 0 40.5363C0 54.2688 10.5988 65.4012 23.6732 65.4012Z" fill="#6C63FF"/>
<path d="M25.955 115.431H21.1062L23.3166 36.7915L25.955 115.431Z" fill="#3F3D56"/>
<path d="M23.7443 51.6955L28.9497 44.1313L23.6731 53.5679L23.1027 52.5193L23.7443 51.6955Z" fill="#3F3D56"/>
<path d="M23.1739 59.3347L17.9688 51.7705L23.2454 61.2071L23.8158 60.1586L23.1739 59.3347Z" fill="#3F3D56"/>
<path d="M173.36 115.513H168.511L170.722 36.8742L173.36 115.513Z" fill="#3F3D56"/>
<path d="M171.149 51.7782L176.355 44.214L171.078 53.6506L170.508 52.6021L171.149 51.7782Z" fill="#3F3D56"/>
<path d="M170.579 59.4175L165.374 51.8533L170.65 61.2898L171.221 60.2413L170.579 59.4175Z" fill="#3F3D56"/>
<path d="M96.1708 115.5C120.526 115.5 140.271 94.762 140.271 69.1802C140.271 43.5984 120.526 22.8603 96.1708 22.8603C71.8151 22.8603 52.0709 43.5984 52.0709 69.1802C52.0709 94.762 71.8151 115.5 96.1708 115.5Z" fill="#3F3D56"/>
<path d="M96.1708 111.666C118.51 111.666 136.62 92.6443 136.62 69.1802C136.62 45.7161 118.51 26.6947 96.1708 26.6947C73.8313 26.6947 55.7216 45.7161 55.7216 69.1802C55.7216 92.6443 73.8313 111.666 96.1708 111.666Z" fill="white"/>
<path d="M96.0248 75.0085C99.0088 75.0085 101.428 72.4678 101.428 69.3336C101.428 66.1994 99.0088 63.6586 96.0248 63.6586C93.0408 63.6586 90.6218 66.1994 90.6218 69.3336C90.6218 72.4678 93.0408 75.0085 96.0248 75.0085Z" fill="#3F3D56"/>
<path d="M97.1931 28.842H94.8567V33.4433H97.1931V28.842Z" fill="#3F3D56"/>
<path d="M97.1931 105.224H94.8567V109.825H97.1931V105.224Z" fill="#3F3D56"/>
<path d="M61.8546 70.5606V68.1066H57.4738V70.5606H61.8546Z" fill="#3F3D56"/>
<path d="M134.576 70.5606V68.1066H130.195V70.5606H134.576Z" fill="#3F3D56"/>
<path d="M94.4673 71.7971L96.464 67.0017L121.483 81.5558L94.4673 71.7971Z" fill="#3F3D56"/>
<path d="M101.866 11.6637H90.4758V25.4677H101.866V11.6637Z" fill="#3F3D56"/>
<path d="M96.1709 15.4982C103.429 15.4982 109.313 13.7814 109.313 11.6637C109.313 9.54602 103.429 7.82928 96.1709 7.82928C88.9126 7.82928 83.0286 9.54602 83.0286 11.6637C83.0286 13.7814 88.9126 15.4982 96.1709 15.4982Z" fill="#3F3D56"/>
<path d="M120.776 77.3859L120.046 78.4595C120.046 78.4595 116.688 82.6007 116.542 80.6068C116.395 78.6129 119.024 77.2325 119.024 77.2325L120.484 76.3123L120.776 77.3859Z" fill="#FFB8B8"/>
<path d="M141.562 81.0082L142.174 82.1608C142.174 82.1608 144.3 87.1214 142.522 86.4067C140.743 85.692 140.68 82.6061 140.68 82.6061L140.513 80.826L141.562 81.0082Z" fill="#FFB8B8"/>
<path d="M138.275 60.5706C140.731 60.5706 142.721 58.4797 142.721 55.9004C142.721 53.3211 140.731 51.2301 138.275 51.2301C135.819 51.2301 133.829 53.3211 133.829 55.9004C133.829 58.4797 135.819 60.5706 138.275 60.5706Z" fill="#2F2E41"/>
<path d="M137.861 94.2574L138.445 98.2452V99.4723H141.804V97.9385C141.804 97.9385 141.95 95.1777 141.366 94.4108C140.782 93.6439 137.861 94.2574 137.861 94.2574Z" fill="#FFB8B8"/>
<path d="M131.874 94.2574L132.458 98.2452V99.4723H135.817V97.9385C135.817 97.9385 135.963 95.1777 135.379 94.4108C134.795 93.6439 131.874 94.2574 131.874 94.2574Z" fill="#FFB8B8"/>
<path d="M134.134 62.2249C134.134 62.2249 132.843 62.9401 133.725 64.5668C134.607 66.1936 139.784 83.0233 139.784 83.0233L142.771 82.1329L140.137 71.4892L138.629 64.7996L134.134 62.2249Z" fill="#6C63FF"/>
<path d="M137.788 60.7445C139.643 60.7445 141.147 59.1651 141.147 57.2168C141.147 55.2685 139.643 53.6891 137.788 53.6891C135.933 53.6891 134.43 55.2685 134.43 57.2168C134.43 59.1651 135.933 60.7445 137.788 60.7445Z" fill="#FFB8B8"/>
<path d="M139.322 57.7536L138.883 64.9623L135.817 62.6617C135.817 62.6617 136.839 58.3671 136.547 58.0603L139.322 57.7536Z" fill="#FFB8B8"/>
<path d="M139.322 64.3488L136.018 61.7794C136.018 61.7794 134.503 61.1279 134.065 61.8948C133.627 62.6617 131.436 74.0116 132.604 76.1589C132.604 76.1589 138.884 77.5393 140.198 76.7724L140.782 72.7846C140.782 72.7846 141.512 70.3305 140.344 68.7968L139.322 64.3488Z" fill="#6C63FF"/>
<path d="M134.941 62.0482C134.941 62.0482 133.772 61.1279 132.75 62.6617C131.728 64.1954 119.462 76.3123 119.462 76.3123L121.506 78.7663L129.538 71.7109L134.649 67.4164L134.941 62.0482Z" fill="#6C63FF"/>
<path d="M140.271 76.6957C140.271 76.6957 133.042 75.2386 132.312 76.3122L132.166 77.9994C132.166 77.9994 130.56 81.2203 131.436 86.4352C132.312 91.65 131.728 94.8709 131.728 94.8709C131.728 94.8709 135.671 94.4108 138.591 94.8709C141.512 95.331 141.95 94.8709 141.95 94.8709L140.271 76.6957Z" fill="#2F2E41"/>
<path d="M142.096 98.8587L137.861 99.0121L139.322 110.515C139.322 110.515 138.153 115.423 139.468 115.73C140.381 115.924 141.31 116.027 142.242 116.037C142.242 116.037 143.556 117.417 145.017 117.264C145.986 117.134 146.926 116.822 147.791 116.344C147.791 116.344 148.083 115.423 147.061 115.117C146.039 114.81 143.264 113.89 142.68 110.669L142.096 98.8587Z" fill="#2F2E41"/>
<path d="M136.109 98.8587L131.874 99.0121L133.335 110.515C133.335 110.515 132.166 115.423 133.481 115.73C134.394 115.924 135.323 116.027 136.255 116.037C136.255 116.037 137.569 117.417 139.03 117.264C139.999 117.134 140.939 116.822 141.804 116.344C141.804 116.344 142.096 115.423 141.074 115.117C140.052 114.81 137.277 113.89 136.693 110.669L136.109 98.8587Z" fill="#2F2E41"/>
<path d="M139.83 52.9175C140.847 52.9175 141.67 52.0523 141.67 50.985C141.67 49.9177 140.847 49.0525 139.83 49.0525C138.814 49.0525 137.99 49.9177 137.99 50.985C137.99 52.0523 138.814 52.9175 139.83 52.9175Z" fill="#2F2E41"/>
<path d="M142.284 49.9382C142.284 49.4605 142.115 48.9998 141.811 48.6448C141.507 48.2899 141.088 48.0659 140.635 48.0161C140.699 48.0092 140.763 48.0057 140.827 48.0057C141.315 48.0057 141.783 48.2093 142.128 48.5717C142.473 48.9341 142.667 49.4257 142.667 49.9382C142.667 50.4507 142.473 50.9423 142.128 51.3047C141.783 51.6671 141.315 51.8707 140.827 51.8707C140.763 51.8707 140.699 51.8672 140.635 51.8603C141.088 51.8105 141.507 51.5865 141.811 51.2316C142.115 50.8766 142.284 50.4159 142.284 49.9382Z" fill="#2F2E41"/>
<path d="M137.758 56.8427C139.451 56.8427 140.824 55.9775 140.824 54.9102C140.824 53.8429 139.451 52.9777 137.758 52.9777C136.064 52.9777 134.691 53.8429 134.691 54.9102C134.691 55.9775 136.064 56.8427 137.758 56.8427Z" fill="#2F2E41"/>
<path d="M186.059 9.2751C185.933 6.94899 185.026 4.74521 183.497 3.05666C181.969 1.36812 179.919 0.304576 177.714 0.0556504C175.508 -0.193275 173.291 0.388601 171.456 1.69753C169.621 3.00646 168.288 4.95737 167.695 7.20242C167.581 7.19814 167.468 7.19336 167.354 7.19336C165.332 7.19375 163.364 7.88181 161.745 9.15462C160.126 10.4274 158.943 12.2165 158.373 14.2543C157.033 13.6359 155.536 13.5018 154.116 13.8728C152.695 14.2439 151.432 15.0993 150.524 16.305H179.72C180.572 16.3075 181.416 16.1295 182.2 15.7815C182.985 15.4336 183.695 14.923 184.287 14.2802C184.88 13.6374 185.342 12.8756 185.648 12.0405C185.953 11.2054 186.095 10.3142 186.065 9.42009C186.063 9.37183 186.061 9.3235 186.059 9.2751Z" fill="#E6E6E6"/>
<path d="M161.651 29.9651C163.039 29.9651 164.165 28.7829 164.165 27.3245C164.165 25.8662 163.039 24.684 161.651 24.684C160.262 24.684 159.137 25.8662 159.137 27.3245C159.137 28.7829 160.262 29.9651 161.651 29.9651Z" fill="#E6E6E6"/>
<path d="M169.242 23.2977C170.398 23.2977 171.335 22.3133 171.335 21.099C171.335 19.8848 170.398 18.9004 169.242 18.9004C168.086 18.9004 167.148 19.8848 167.148 21.099C167.148 22.3133 168.086 23.2977 169.242 23.2977Z" fill="#E6E6E6"/>
<path d="M179.458 35.6862C180.846 35.6862 181.972 34.504 181.972 33.0457C181.972 31.5874 180.846 30.4052 179.458 30.4052C178.07 30.4052 176.944 31.5874 176.944 33.0457C176.944 34.504 178.07 35.6862 179.458 35.6862Z" fill="#E6E6E6"/>
<path d="M160.394 47.7886C161.782 47.7886 162.908 46.6064 162.908 45.1481C162.908 43.6898 161.782 42.5076 160.394 42.5076C159.005 42.5076 157.88 43.6898 157.88 45.1481C157.88 46.6064 159.005 47.7886 160.394 47.7886Z" fill="#E6E6E6"/>
<path d="M179.458 62.9716C180.846 62.9716 181.972 61.7894 181.972 60.3311C181.972 58.8728 180.846 57.6906 179.458 57.6906C178.07 57.6906 176.944 58.8728 176.944 60.3311C176.944 61.7894 178.07 62.9716 179.458 62.9716Z" fill="#E6E6E6"/>
<path d="M175.473 111.247C175.474 111.218 175.478 111.19 175.478 111.161C175.478 110.719 175.373 110.283 175.171 109.895C174.969 109.506 174.678 109.177 174.323 108.938C173.969 108.699 173.563 108.558 173.143 108.527C172.722 108.496 172.302 108.577 171.919 108.762C171.56 108.326 171.074 108.027 170.538 107.909C170.001 107.791 169.442 107.861 168.946 108.108C168.451 108.356 168.047 108.767 167.796 109.279C167.544 109.791 167.46 110.376 167.555 110.943C167.542 110.943 167.53 110.941 167.517 110.941C167.116 110.94 166.722 111.04 166.366 111.232C166.01 111.424 165.702 111.702 165.469 112.044C165.236 112.385 165.084 112.781 165.026 113.197C164.967 113.612 165.004 114.037 165.134 114.435C165.263 114.833 165.481 115.192 165.769 115.484C166.057 115.775 166.408 115.99 166.791 116.111C167.175 116.232 167.58 116.254 167.973 116.177C168.367 116.1 168.737 115.926 169.053 115.668C169.253 116.077 169.55 116.423 169.916 116.674C170.282 116.925 170.704 117.071 171.14 117.098C171.577 117.125 172.012 117.032 172.404 116.828C172.795 116.624 173.13 116.317 173.373 115.936C173.673 116.165 174.016 116.321 174.379 116.394C174.743 116.467 175.117 116.455 175.475 116.358C175.834 116.262 176.167 116.083 176.452 115.836C176.737 115.588 176.967 115.277 177.124 114.926C177.282 114.574 177.363 114.19 177.363 113.802C177.363 113.413 177.281 113.029 177.123 112.678C176.966 112.327 176.736 112.016 176.451 111.769C176.166 111.521 175.832 111.343 175.473 111.247Z" fill="#E6E6E6"/>
<path d="M181.763 50.8692C182.341 50.8692 182.81 50.3766 182.81 49.769C182.81 49.1614 182.341 48.6688 181.763 48.6688C181.184 48.6688 180.715 49.1614 180.715 49.769C180.715 50.3766 181.184 50.8692 181.763 50.8692Z" fill="#E6E6E6"/>
<path d="M175.059 24.464C175.637 24.464 176.106 23.9714 176.106 23.3638C176.106 22.7562 175.637 22.2636 175.059 22.2636C174.48 22.2636 174.011 22.7562 174.011 23.3638C174.011 23.9714 174.48 24.464 175.059 24.464Z" fill="#E6E6E6"/>
<path d="M171.497 51.7494C172.076 51.7494 172.545 51.2568 172.545 50.6492C172.545 50.0416 172.076 49.549 171.497 49.549C170.919 49.549 170.45 50.0416 170.45 50.6492C170.45 51.2568 170.919 51.7494 171.497 51.7494Z" fill="#E6E6E6"/>
<path d="M172.335 50.6492C172.914 50.6492 173.383 50.1566 173.383 49.549C173.383 48.9413 172.914 48.4488 172.335 48.4488C171.757 48.4488 171.288 48.9413 171.288 49.549C171.288 50.1566 171.757 50.6492 172.335 50.6492Z" fill="#E6E6E6"/>
<path d="M172.964 49.549C173.542 49.549 174.011 49.0564 174.011 48.4488C174.011 47.8411 173.542 47.3485 172.964 47.3485C172.385 47.3485 171.916 47.8411 171.916 48.4488C171.916 49.0564 172.385 49.549 172.964 49.549Z" fill="#E6E6E6"/>
<path d="M170.45 58.7908C171.028 58.7908 171.497 58.2982 171.497 57.6906C171.497 57.0829 171.028 56.5904 170.45 56.5904C169.871 56.5904 169.402 57.0829 169.402 57.6906C169.402 58.2982 169.871 58.7908 170.45 58.7908Z" fill="#E6E6E6"/>
<path d="M185.952 71.1133C186.531 71.1133 187 70.6207 187 70.013C187 69.4054 186.531 68.9128 185.952 68.9128C185.374 68.9128 184.905 69.4054 184.905 70.013C184.905 70.6207 185.374 71.1133 185.952 71.1133Z" fill="#E6E6E6"/>
<path d="M163.536 71.7734C164.115 71.7734 164.584 71.2808 164.584 70.6732C164.584 70.0655 164.115 69.5729 163.536 69.5729C162.958 69.5729 162.489 70.0655 162.489 70.6732C162.489 71.2808 162.958 71.7734 163.536 71.7734Z" fill="#E6E6E6"/>
<path d="M164.793 37.8867C165.372 37.8867 165.841 37.3941 165.841 36.7864C165.841 36.1788 165.372 35.6862 164.793 35.6862C164.215 35.6862 163.746 36.1788 163.746 36.7864C163.746 37.3941 164.215 37.8867 164.793 37.8867Z" fill="#E6E6E6"/>
<path d="M169.612 57.6906C170.19 57.6906 170.659 57.198 170.659 56.5904C170.659 55.9827 170.19 55.4901 169.612 55.4901C169.033 55.4901 168.564 55.9827 168.564 56.5904C168.564 57.198 169.033 57.6906 169.612 57.6906Z" fill="#E6E6E6"/>
<path d="M168.564 55.9302C169.143 55.9302 169.612 55.4376 169.612 54.83C169.612 54.2224 169.143 53.7298 168.564 53.7298C167.986 53.7298 167.517 54.2224 167.517 54.83C167.517 55.4376 167.986 55.9302 168.564 55.9302Z" fill="#E6E6E6"/>
</g>
<defs>
<clipPath id="clip0">
<rect width="187" height="119" fill="white"/>
</clipPath>
</defs>
</svg>
